<?xml version="1.0" standalone="no"?>
<!DOCTYPE svg PUBLIC "-//W3C//DTD SVG 20010904//EN"
 "http://www.w3.org/TR/2001/REC-SVG-20010904/DTD/svg10.dtd">
<svg version="1.0" xmlns="http://www.w3.org/2000/svg"
 width="300.000000pt" height="342.000000pt" viewBox="0 0 300.000000 342.000000"
 preserveAspectRatio="xMidYMid meet">
<metadata>
Created by potrace 1.10, written by Peter Selinger 2001-2011
</metadata>
<g transform="translate(0.000000,342.000000) scale(0.100000,-0.100000)"
fill="#000000" stroke="none">
<path d="M1216 3241 c-6 -9 56 -38 97 -45 15 -2 27 -1 27 4 0 13 140 -62 173
-93 17 -16 43 -35 59 -43 15 -8 28 -18 28 -23 0 -13 61 -40 77 -34 7 3 13 13
12 22 0 10 -2 11 -6 4 -7 -18 -23 -16 -23 2 0 8 -6 12 -14 9 -9 -3 -17 3 -21
15 -3 12 -12 21 -19 21 -8 0 -19 7 -26 15 -7 8 -16 13 -20 10 -4 -2 -12 6 -19
18 -14 26 -121 95 -157 101 -14 3 -32 10 -39 16 -9 8 -24 8 -47 2 -18 -5 -43
-5 -55 -1 -12 4 -25 5 -27 0z"/>
<path d="M1125 3221 c-16 -4 -40 -13 -52 -19 -12 -7 -31 -12 -41 -12 -11 0
-30 -11 -43 -25 -13 -14 -41 -35 -61 -47 -21 -12 -38 -25 -38 -30 0 -4 -7 -8
-15 -8 -8 0 -15 -7 -15 -15 0 -9 -12 -18 -30 -22 -32 -6 -60 -44 -60 -83 0
-11 -7 -20 -16 -20 -8 0 -12 -5 -9 -10 4 -6 11 -8 16 -5 5 3 6 -1 3 -9 -3 -9
-10 -16 -16 -16 -5 0 -6 -4 -3 -10 9 -15 35 -12 35 5 0 7 7 18 16 23 14 8 21
26 23 59 1 14 50 73 59 72 22 -4 42 3 42 12 0 12 29 38 42 39 4 0 5 -7 1 -15
-3 -9 8 -2 26 15 17 17 30 37 28 43 -1 7 7 12 18 13 34 2 75 16 75 25 0 5 14
7 31 4 17 -3 37 0 45 6 11 9 20 8 38 -5 15 -10 27 -12 31 -6 3 6 -1 10 -9 10
-8 0 -19 6 -23 14 -10 18 -60 26 -98 17z"/>
<path d="M1700 3027 c0 -26 7 -41 26 -56 24 -19 26 -23 14 -51 -10 -23 -10
-33 -1 -44 7 -8 11 -20 10 -28 -2 -7 1 -28 5 -47 6 -25 11 -30 17 -20 7 9 8 5
3 -13 -3 -14 -1 -35 5 -45 9 -17 13 -68 11 -140 0 -13 -5 -23 -10 -23 -7 0 -7
-7 0 -20 8 -15 8 -30 1 -53 -6 -18 -9 -58 -7 -87 3 -30 2 -47 -1 -37 -3 14 -8
15 -18 7 -11 -9 -13 -3 -11 35 3 33 -1 48 -10 52 -8 3 -22 21 -31 41 -9 19
-19 30 -21 23 -6 -18 30 -81 41 -74 6 3 7 1 3 -6 -8 -12 -4 -31 36 -201 25
-105 21 -243 -8 -287 -10 -15 -18 -37 -19 -48 -1 -11 -5 -29 -9 -40 -6 -16 -6
-17 3 -5 14 19 14 17 -3 -60 -17 -82 -25 -101 -48 -121 -10 -9 -14 -20 -10
-24 4 -4 -3 -5 -15 -2 -18 4 -23 1 -23 -15 0 -21 -44 -70 -54 -60 -3 3 -6 -3
-6 -12 0 -12 -5 -16 -15 -12 -9 3 -15 0 -15 -9 0 -7 -9 -17 -21 -20 -14 -5
-18 -12 -14 -23 3 -9 3 -13 -1 -10 -3 4 -20 0 -36 -8 -16 -8 -33 -12 -38 -9
-6 3 -10 2 -10 -3 0 -6 -12 -13 -27 -17 -44 -13 -52 -14 -52 -7 3 18 -2 26 -9
15 -10 -15 -78 -27 -100 -17 -15 6 -35 11 -68 18 -7 1 -18 7 -26 14 -8 6 -17
9 -21 6 -3 -3 -14 -1 -24 5 -17 10 -17 10 0 11 9 0 17 4 17 10 0 5 -3 9 -7 9
-21 -3 -33 2 -33 16 0 9 -9 15 -25 15 -14 0 -25 5 -25 10 0 6 -7 10 -15 10 -7
0 -19 8 -24 18 -6 10 -11 12 -11 4 0 -21 21 -44 95 -101 71 -54 96 -66 105
-51 6 10 8 10 12 0 4 -12 11 -14 100 -26 99 -14 218 37 316 134 130 129 145
157 192 346 30 120 28 189 -6 329 -5 22 -1 34 16 53 34 35 47 30 48 -18 0 -24
8 -60 17 -81 15 -37 15 -103 -1 -129 -5 -7 -7 -28 -5 -47 2 -28 0 -33 -14 -27
-13 5 -16 2 -11 -10 4 -10 -1 -25 -10 -35 -15 -17 -15 -19 -2 -19 57 0 102
253 67 371 -14 46 -33 55 -67 33 l-25 -16 6 73 c4 41 9 88 11 104 22 139 8
303 -31 349 -18 20 -17 20 2 6 19 -15 19 -15 2 12 -10 17 -17 47 -17 80 0 45
-5 59 -35 97 l-35 44 0 -36z m188 -830 l-4 -32 -8 30 c-4 17 -12 38 -17 48 -5
10 -7 23 -3 29 11 18 36 -40 32 -75z"/>
<path d="M691 2854 c-7 -25 -7 -43 0 -56 7 -12 7 -24 1 -31 -14 -18 -24 -85
-14 -91 5 -3 16 2 24 12 19 21 32 109 17 114 -5 2 -1 13 10 25 17 18 18 23 6
33 -8 6 -19 9 -24 5 -7 -3 -8 0 -5 9 3 9 4 16 1 16 -4 0 -11 -16 -16 -36z"/>
<path d="M1129 2772 c-1 -4 -1 -11 0 -15 1 -4 -8 -3 -18 3 -14 7 -27 7 -46 -2
-21 -9 -31 -9 -46 0 -45 28 -149 -25 -176 -90 -7 -17 -12 -33 -9 -35 2 -2 9
10 16 27 15 35 55 70 81 70 9 0 19 4 21 9 2 5 47 4 103 -1 197 -18 198 -18
184 -2 -6 8 -22 12 -35 10 -13 -3 -24 -1 -24 4 0 4 -10 6 -22 3 -17 -3 -19 -2
-10 5 11 7 11 10 -2 15 -9 4 -17 3 -17 -1z"/>
<path d="M1420 2770 c-13 -9 -13 -11 0 -19 9 -6 17 -6 21 0 3 6 17 4 35 -6 18
-9 30 -11 32 -4 3 6 10 5 19 -3 9 -7 29 -13 45 -14 27 -2 28 0 15 13 -8 8 -36
16 -61 17 -26 2 -52 8 -58 14 -14 14 -28 15 -48 2z"/>
<path d="M1240 2760 c0 -5 8 -10 18 -11 9 0 25 -2 35 -4 9 -2 17 3 17 11 0 9
-12 14 -35 14 -19 0 -35 -4 -35 -10z"/>
<path d="M1663 2686 c4 -10 7 -22 7 -26 0 -5 9 -14 19 -20 18 -9 19 -8 5 20
-17 33 -42 54 -31 26z"/>
<path d="M707 2683 c-4 -3 -7 -15 -7 -25 0 -10 -7 -18 -16 -18 -11 0 -14 -5
-10 -16 3 -9 6 -18 6 -20 0 -3 4 -3 9 0 5 3 8 0 7 -7 0 -6 3 -36 7 -65 5 -34
4 -58 -2 -66 -8 -9 -6 -25 3 -52 8 -21 23 -67 34 -101 l20 -63 -23 0 c-13 0
-26 -3 -28 -7 -10 -17 15 -250 30 -288 9 -22 30 -57 46 -78 16 -21 42 -75 58
-119 25 -71 36 -93 73 -143 7 -9 -2 -38 -27 -90 -20 -42 -37 -78 -37 -81 0 -2
16 6 35 18 32 21 36 27 33 61 -3 37 8 47 28 27 17 -17 12 63 -5 83 -9 10 -15
20 -13 23 1 2 -7 14 -18 26 -19 21 -20 23 -3 30 10 3 12 7 5 7 -7 1 -10 6 -7
11 4 6 12 7 18 4 7 -4 8 -3 4 2 -9 9 -13 10 -42 13 -8 0 -15 6 -15 12 0 5 5 7
10 4 16 -10 12 3 -9 33 -11 15 -30 56 -43 92 -21 61 -23 80 -21 280 1 123 6
227 12 242 6 15 6 30 1 33 -4 3 -11 -8 -15 -24 -7 -31 -18 -44 -47 -54 -15 -5
-18 -1 -17 26 1 18 -2 43 -6 56 -6 18 -5 22 5 16 12 -8 11 21 -5 95 -4 14 -8
47 -11 75 -5 54 -7 58 -17 48z m66 -461 c14 -16 16 -34 11 -118 -7 -112 -7
-105 2 -161 11 -72 -10 -48 -31 35 -13 49 -19 98 -17 134 4 55 5 57 25 47 19
-10 18 -7 -5 18 -30 31 -37 63 -15 63 8 0 21 -8 30 -18z"/>
<path d="M1530 2428 c0 -4 -14 -8 -31 -8 -39 0 -110 -20 -126 -36 -7 -7 -18
-14 -25 -16 -6 -2 -8 -9 -4 -16 5 -9 15 -8 41 2 19 8 56 17 82 21 26 3 64 11
85 17 33 10 39 8 72 -17 35 -27 43 -24 30 10 -12 31 -124 71 -124 43z"/>
<path d="M903 2367 c-41 -28 -53 -53 -21 -41 13 4 84 9 158 10 74 2 140 3 145
3 6 1 -3 9 -20 18 -22 12 -54 17 -117 16 -49 0 -88 4 -88 9 0 14 -23 8 -57
-15z"/>
<path d="M1404 2308 c-19 -21 -19 -21 3 -9 27 14 49 6 56 -21 3 -11 10 -17 16
-14 5 3 21 1 36 -6 20 -9 31 -9 45 0 11 6 26 9 34 6 17 -6 31 12 16 21 -6 4
-8 10 -5 15 7 11 -19 17 -111 24 -64 5 -73 4 -90 -16z m163 -24 c2 -6 -6 -14
-19 -17 -27 -7 -30 -5 -22 17 7 18 35 18 41 0z"/>
<path d="M1088 2290 c49 -12 52 -22 4 -14 -32 5 -42 3 -42 -7 0 -9 -3 -10 -8
-3 -15 22 -41 22 -88 -1 -27 -13 -43 -24 -36 -24 6 -1 11 -7 10 -13 -2 -9 16
-15 54 -18 62 -6 66 -1 10 16 l-37 10 24 13 c21 12 26 11 36 -2 10 -15 55 -20
55 -7 0 3 4 11 8 18 10 16 43 5 36 -12 -2 -6 4 -12 16 -13 21 -2 27 11 10 22
-6 4 -8 10 -5 15 8 12 -28 30 -57 29 -17 -1 -15 -3 10 -9z"/>
<path d="M1405 2280 c-22 -25 -19 -28 20 -19 17 4 22 7 11 8 -15 1 -16 4 -6
16 19 23 -4 18 -25 -5z"/>
<path d="M1200 2257 c0 -12 -6 -31 -14 -42 -7 -11 -17 -38 -21 -60 -5 -22 -10
-47 -12 -55 -2 -8 -7 -34 -10 -57 -5 -36 -2 -43 18 -54 13 -7 26 -11 29 -10 2
1 6 -2 8 -8 2 -6 -1 -11 -8 -11 -6 0 -9 -4 -6 -9 6 -10 -28 -44 -36 -35 -3 3
-24 -12 -47 -33 -41 -38 -79 -127 -60 -139 5 -3 9 2 9 11 0 8 7 18 15 21 8 4
15 14 15 24 0 9 11 29 24 43 14 15 30 35 36 44 8 13 13 14 16 6 9 -20 24 -15
24 8 0 15 5 19 15 15 8 -3 15 0 15 7 0 8 3 8 8 2 10 -15 28 -13 44 4 7 8 8 11
2 8 -13 -8 -47 20 -57 46 -3 9 -15 17 -26 17 -26 0 -37 40 -21 71 12 22 13 21
31 -19 17 -37 79 -85 79 -61 0 5 -4 9 -10 9 -5 0 -25 20 -44 45 -34 45 -34 47
-20 82 18 42 27 153 13 153 -5 0 -9 -10 -9 -23z"/>
<path d="M1320 2156 c0 -9 5 -16 10 -16 6 0 10 -7 10 -15 0 -8 11 -17 24 -21
32 -8 54 -48 36 -69 -7 -8 -19 -15 -26 -15 -8 0 -14 -4 -14 -10 0 -17 26 -11
45 10 21 23 14 61 -14 88 -69 63 -71 64 -71 48z"/>
<path d="M1312 2030 c-12 -12 -22 -26 -22 -33 0 -9 3 -8 9 1 11 18 61 43 72
36 5 -3 9 0 9 5 0 19 -45 12 -68 -9z"/>
<path d="M1334 1966 c-8 -32 1 -45 25 -39 11 3 34 -2 52 -11 18 -9 38 -16 46
-16 7 0 13 -5 13 -11 0 -5 4 -8 10 -4 14 9 43 -42 37 -65 -3 -11 -1 -18 4 -14
5 3 9 12 9 20 0 8 4 13 10 9 5 -3 5 7 -1 25 -13 36 -66 83 -86 76 -17 -7 -65
23 -57 35 7 13 -19 7 -28 -6 -4 -6 -8 -2 -8 8 0 26 -19 21 -26 -7z"/>
<path d="M1360 1879 c-19 -5 -64 -9 -99 -10 -51 -1 -72 -6 -108 -29 -28 -18
-40 -31 -32 -35 6 -4 14 -4 18 1 22 32 235 64 288 43 14 -5 33 -7 42 -4 11 4
3 12 -28 26 -24 10 -44 19 -45 18 0 -1 -17 -5 -36 -10z"/>
<path d="M1355 1819 c-22 -5 -74 -10 -115 -10 -55 -1 -67 -3 -45 -9 46 -11
156 -4 195 13 39 17 25 19 -35 6z"/>
<path d="M1153 1774 c7 -7 28 -15 47 -18 l35 -6 -28 13 c-15 7 -25 15 -23 18
2 2 -6 4 -19 4 -19 0 -21 -3 -12 -11z"/>
<path d="M1390 1745 c-14 -8 -42 -14 -63 -15 -21 0 -47 -4 -57 -10 -13 -7 -31
-5 -60 5 -55 19 -58 19 -30 -5 13 -11 36 -20 52 -20 15 0 28 -5 28 -11 0 -5 5
-7 11 -3 7 4 7 -1 -1 -16 -7 -13 -7 -20 -2 -16 6 3 12 -2 15 -11 3 -14 6 -11
11 10 5 15 14 27 22 27 8 0 14 5 14 11 0 5 5 7 10 4 6 -3 10 -1 10 5 0 6 4 9
8 6 5 -3 21 8 36 25 31 33 31 34 -4 14z"/>
<path d="M1750 1633 c21 -46 34 -123 20 -123 -13 0 -30 34 -30 62 -1 19 -2 20
-10 7 -11 -19 8 -79 26 -79 6 0 23 -9 38 -21 28 -22 34 -11 12 24 -8 12 -17
33 -20 47 -6 22 -5 23 6 9 15 -19 71 -32 61 -15 -16 28 -48 56 -67 57 -18 1
-19 2 -3 6 17 4 16 8 -9 34 -38 39 -46 36 -24 -8z"/>
<path d="M1382 1572 c4 -12 2 -22 -3 -22 -5 0 -9 8 -10 18 0 10 -3 12 -6 4 -2
-6 -10 -10 -16 -6 -7 3 -2 -3 10 -14 17 -15 19 -22 10 -33 -10 -10 -8 -10 6 1
30 22 37 43 19 59 -14 13 -15 12 -10 -7z"/>
<path d="M1471 1563 c-1 -12 -5 -25 -11 -28 -12 -8 -13 -45 -1 -45 5 0 7 9 4
20 -3 11 0 20 5 20 6 0 16 10 23 21 6 13 7 19 1 15 -6 -3 -13 0 -15 6 -3 7 -6
3 -6 -9z"/>
<path d="M1820 1517 c0 -22 23 -44 53 -51 36 -8 34 6 -4 38 -34 29 -49 33 -49
13z"/>
<path d="M935 1507 c3 -10 5 -36 5 -58 0 -28 4 -39 15 -39 8 0 15 -4 15 -10 0
-5 -4 -10 -10 -10 -5 0 -10 -9 -10 -20 0 -11 5 -20 11 -20 6 0 9 7 5 15 -3 8
-2 15 2 15 6 -1 117 -215 130 -251 2 -5 -7 -9 -20 -10 -18 -1 -15 -3 11 -11
22 -6 30 -12 23 -17 -9 -5 -5 -11 13 -19 15 -7 25 -8 25 -2 0 6 -4 10 -10 10
-5 0 -10 7 -10 15 0 8 -4 15 -9 15 -5 0 -7 14 -5 30 3 17 1 30 -4 30 -7 0 -89
158 -171 330 -6 14 -9 17 -6 7z"/>
<path d="M1900 1495 c0 -15 35 -65 46 -65 6 0 19 -16 28 -35 9 -19 21 -37 26
-40 6 -3 10 -11 10 -17 0 -6 -6 -6 -15 2 -21 17 -27 8 -19 -26 6 -25 8 -26 15
-9 5 14 8 6 8 -27 1 -55 8 -62 45 -45 20 9 25 17 21 32 -2 11 -5 26 -5 33 0 6
-4 12 -10 12 -5 0 -6 -8 -3 -17 6 -17 6 -17 -10 -1 -21 20 -21 28 -3 28 7 0
16 9 19 21 4 15 0 23 -14 26 -12 3 -19 14 -19 29 0 17 4 22 15 18 8 -4 15 -9
15 -13 0 -3 17 -7 38 -7 22 -1 62 -13 91 -28 51 -25 71 -26 71 -4 0 6 -3 9 -6
5 -4 -3 -23 1 -43 10 -20 8 -69 23 -109 33 l-73 18 -9 -22 c-4 -11 -5 -25 -2
-30 3 -5 0 -6 -6 -2 -15 9 -16 43 -2 51 15 9 12 19 -10 43 -21 22 -60 30 -60
12 0 -5 7 -6 17 -3 11 4 14 3 9 -5 -10 -17 -36 -15 -36 2 0 8 -4 18 -10 21 -5
3 -10 3 -10 0z"/>
<path d="M1750 1412 c0 -41 3 -73 6 -70 3 3 5 25 6 49 0 29 3 37 9 27 5 -9 8
-33 8 -54 0 -22 2 -57 5 -79 2 -22 5 -60 5 -84 1 -52 13 -48 17 6 4 42 4 50
-1 138 -1 33 -3 74 -4 90 -1 22 -8 33 -26 42 l-25 11 0 -76z"/>
<path d="M909 1468 c-1 -5 -2 -12 -3 -17 0 -5 -5 -13 -10 -18 -5 -5 -6 -3 -2
5 4 6 3 12 -3 12 -12 0 -31 -32 -36 -61 -5 -23 -4 -23 40 -2 19 9 35 24 34 32
-1 19 -17 59 -20 49z"/>
<path d="M1857 1430 c4 -15 14 -20 42 -20 27 0 32 3 21 10 -8 5 -10 10 -5 10
20 1 -20 20 -42 20 -16 0 -20 -5 -16 -20z"/>
<path d="M760 1413 c-45 -15 -119 -62 -120 -75 0 -13 59 -19 79 -9 11 6 37 11
58 11 41 0 63 14 63 40 0 12 -8 15 -36 12 -23 -3 -32 -7 -24 -12 7 -5 20 -6
29 -3 11 4 9 0 -4 -10 -11 -9 -33 -17 -48 -17 -16 0 -37 -5 -48 -10 -13 -7
-19 -7 -19 0 0 5 4 10 8 10 5 0 17 7 28 15 18 14 17 14 -11 4 -18 -6 -26 -6
-20 0 15 15 97 43 123 42 12 0 22 4 22 9 0 14 -27 12 -80 -7z"/>
<path d="M905 1374 c-11 -8 -27 -19 -35 -24 -8 -5 -12 -12 -8 -15 9 -10 68 27
68 42 0 16 0 16 -25 -3z"/>
<path d="M2236 1329 c-15 -16 -35 -29 -44 -29 -15 -1 -15 -2 1 -11 14 -8 21
-6 35 11 17 21 21 22 75 10 32 -8 56 -16 54 -19 -1 -3 -9 -18 -16 -33 -8 -16
-18 -28 -23 -28 -5 0 -6 -4 -3 -10 8 -13 1 -13 -46 2 -22 6 -39 15 -39 20 0 4
-4 8 -9 8 -12 0 -3 -52 11 -65 7 -7 9 -3 5 13 -3 12 -1 22 4 22 5 0 9 -8 9
-17 0 -15 2 -16 10 -3 8 13 10 12 10 -4 0 -12 5 -16 16 -12 9 3 31 6 50 6 26
0 34 4 34 18 0 18 39 62 54 62 5 0 5 -7 2 -16 -3 -8 -2 -12 3 -9 11 6 93 -24
102 -38 4 -6 14 -7 24 -4 9 4 14 3 11 -2 -3 -5 5 -16 17 -24 21 -13 25 -13 47
3 l23 17 -49 18 c-27 9 -70 26 -96 36 -26 10 -53 19 -60 19 -7 0 -36 15 -64
34 -28 19 -66 38 -86 44 -32 9 -38 7 -62 -19z m129 -85 c-35 -51 -38 -54 -25
-19 12 31 40 68 47 61 2 -2 -8 -21 -22 -42z"/>
<path d="M888 1332 c-31 -19 -38 -38 -10 -27 45 19 52 18 53 -6 0 -13 2 -34 5
-45 4 -24 -10 -40 -41 -46 -15 -3 -11 -6 12 -9 18 -3 30 -2 27 3 -3 4 -1 8 5
8 5 0 12 -4 15 -9 7 -11 -22 -23 -36 -14 -7 3 -8 1 -4 -5 5 -8 0 -12 -13 -12
-12 0 -21 -5 -21 -11 0 -10 16 -7 68 12 23 9 29 24 12 34 -6 4 -8 10 -6 14 3
4 -1 32 -9 61 -8 29 -12 57 -9 62 8 13 -19 7 -48 -10z"/>
<path d="M2070 1336 c0 -13 28 -36 44 -36 13 0 4 16 -19 33 -21 15 -25 16 -25
3z"/>
<path d="M800 1308 c-11 -18 -20 -35 -20 -38 0 -4 -17 -4 -37 -3 -38 4 -38 4
-13 -11 14 -8 33 -13 42 -10 29 9 78 63 71 79 -8 23 -22 18 -43 -17z"/>
<path d="M609 1324 c-1 -5 -1 -13 0 -17 1 -5 -7 -6 -18 -2 -11 3 -22 1 -26 -5
-3 -5 3 -11 14 -11 12 -1 27 -2 34 -3 6 -1 11 4 10 11 -2 7 3 10 11 7 8 -3 17
-1 21 5 3 6 2 11 -4 11 -5 0 -16 3 -25 6 -9 3 -17 2 -17 -2z"/>
<path d="M1866 1324 c7 -3 10 -14 7 -24 -4 -14 0 -20 12 -20 12 0 15 5 11 16
-3 9 -6 20 -6 25 0 5 -8 9 -17 8 -10 0 -13 -3 -7 -5z"/>
<path d="M962 1290 c-2 -38 12 -55 34 -41 18 10 18 10 -3 11 -16 0 -23 7 -26
28 -4 26 -4 26 -5 2z"/>
<path d="M2081 1268 c-1 -20 3 -39 7 -42 5 -3 7 -18 4 -35 -5 -36 14 -48 95
-59 73 -10 94 -6 86 16 -5 15 -4 15 8 1 10 -12 27 -14 67 -11 28 2 52 7 52 10
0 4 -24 5 -52 3 -67 -4 -60 4 10 13 43 6 52 4 52 -9 0 -9 8 -14 23 -14 12 1
51 -2 87 -6 45 -5 62 -4 55 3 -5 6 -30 12 -55 14 -25 1 -50 10 -56 18 -9 10
-26 13 -60 10 -27 -2 -95 -4 -151 -5 -57 0 -103 -3 -103 -7 0 -5 18 -8 39 -8
22 0 43 -4 46 -10 7 -11 -14 -13 -67 -4 -25 4 -38 12 -38 22 0 8 -8 21 -17 28
-11 8 -13 13 -5 14 14 0 16 48 2 70 -8 12 -10 12 -11 -5 -1 -17 -2 -16 -9 5
-7 22 -8 21 -9 -12z"/>
<path d="M462 1263 c-12 -2 -20 -9 -17 -14 3 -5 -1 -6 -9 -3 -9 3 -16 1 -16
-6 0 -7 -8 -9 -19 -5 -28 9 -337 -130 -380 -171 -23 -21 -4 -29 25 -10 14 10
28 15 31 12 3 -3 -2 -8 -11 -12 -15 -6 -23 -34 -9 -34 3 0 23 17 43 38 20 20
49 43 63 51 15 8 36 23 48 34 18 17 25 18 40 9 11 -7 19 -8 19 -3 0 5 -6 12
-12 15 -7 3 -1 4 14 1 20 -4 26 -2 23 7 -4 9 20 19 76 31 54 13 91 27 108 43
14 13 21 23 16 23 -6 -1 -20 -4 -33 -6z"/>
<path d="M604 1250 c-23 -10 -51 -32 -63 -49 -19 -27 -29 -31 -66 -31 -24 0
-64 -9 -90 -20 -54 -23 -59 -24 -49 -9 3 6 -12 0 -35 -13 -39 -22 -39 -23 -15
-26 14 -2 32 3 41 10 12 10 17 10 20 1 2 -7 11 -9 19 -6 7 3 11 9 8 14 -3 5 0
9 5 9 6 0 11 -4 11 -10 0 -18 18 -10 23 10 3 13 10 18 21 14 9 -3 29 -1 46 4
27 10 30 9 30 -9 0 -28 17 -23 28 9 9 24 10 25 11 5 1 -34 18 -28 25 9 7 35 0
50 -14 28 -8 -13 -10 -12 -10 3 0 10 8 17 20 17 10 0 24 8 29 18 7 10 11 12
11 4 0 -8 7 -11 19 -7 14 4 20 -1 25 -20 4 -14 11 -25 17 -25 8 0 7 5 -1 15
-11 13 -10 14 3 9 12 -4 14 -1 10 15 -4 17 -2 20 11 15 19 -7 21 7 4 24 -16
16 -45 14 -94 -8z"/>
<path d="M716 1221 c-3 -9 -9 -22 -12 -30 -4 -9 -2 -11 5 -7 6 4 11 2 11 -3 0
-6 9 -11 20 -11 11 0 20 6 20 14 0 8 3 21 6 29 3 10 -3 16 -20 19 -16 3 -26 0
-30 -11z"/>
<path d="M2153 1220 c-1 -11 6 -22 18 -25 28 -9 33 -1 17 24 -16 26 -33 27
-35 1z"/>
<path d="M981 1188 c4 -24 8 -49 9 -55 0 -7 5 -13 10 -13 13 0 13 36 0 60 -8
15 -6 21 7 29 10 6 13 11 6 11 -6 0 -18 3 -26 6 -12 4 -13 -2 -6 -38z"/>
<path d="M2025 1208 c-5 -14 -2 -34 10 -60 4 -10 5 -25 2 -33 -4 -8 -2 -17 3
-20 5 -3 10 14 12 37 2 28 7 42 16 41 6 -2 12 1 12 6 0 5 -10 12 -22 14 l-23
4 23 2 c13 0 20 6 17 11 -9 14 -45 12 -50 -2z"/>
<path d="M1890 1194 c0 -7 -13 -11 -32 -10 -25 1 -32 -3 -29 -14 2 -8 4 -22 5
-31 0 -13 4 -14 18 -5 17 10 17 11 1 17 -22 7 -1 21 30 19 53 -5 65 -1 60 20
-6 22 -53 25 -53 4z"/>
<path d="M1950 1200 c0 -5 8 -10 18 -10 14 0 15 -2 2 -10 -9 -6 -10 -10 -3
-10 6 0 18 -3 27 -6 21 -8 21 10 0 30 -17 18 -44 21 -44 6z"/>
<path d="M591 1170 c-7 -22 -7 -30 2 -30 7 0 25 -7 40 -15 l28 -14 -4 32 c-2
19 -9 32 -18 32 -8 1 -13 6 -11 13 5 26 -27 10 -37 -18z"/>
<path d="M812 1180 c-26 -16 -31 -24 -23 -34 6 -7 8 -16 4 -19 -10 -11 2 -8
41 8 59 25 41 31 -21 8 -7 -3 -13 2 -13 12 0 12 6 15 23 11 12 -3 16 -3 8 0
-10 5 -6 10 15 20 16 7 22 13 14 13 -8 1 -30 -8 -48 -19z"/>
<path d="M2633 1169 c-7 -7 10 -30 58 -80 38 -38 71 -69 74 -69 12 0 3 34 -17
63 -13 18 -24 34 -25 36 -1 2 -9 -1 -17 -8 -11 -9 -15 -8 -20 4 -3 9 -2 13 4
10 5 -3 8 3 7 14 0 11 -4 18 -8 15 -4 -2 -9 3 -13 11 -6 18 -27 20 -43 4z"/>
<path d="M720 1135 c0 -9 -9 -15 -25 -15 -15 0 -25 -6 -25 -14 0 -23 13 -26
56 -13 30 9 39 17 40 35 0 17 -5 22 -23 22 -14 0 -23 -6 -23 -15z"/>
<path d="M1767 1133 c3 -6 12 -9 20 -6 11 4 14 2 9 -5 -8 -14 2 -57 12 -48 3
3 7 21 9 39 3 29 1 32 -26 32 -18 0 -27 -4 -24 -12z"/>
<path d="M1887 1123 c-7 -13 -24 -30 -37 -36 -13 -7 -25 -19 -28 -27 -4 -12
-2 -13 9 -2 7 6 23 12 36 12 17 0 23 6 23 23 0 21 5 23 41 23 44 -1 57 -15 58
-63 1 -20 -4 -23 -34 -23 -19 0 -35 -5 -35 -11 0 -7 12 -9 36 -5 31 6 35 5 32
-11 -2 -12 -15 -20 -38 -24 -38 -7 -31 -12 12 -9 21 1 27 -2 22 -13 -3 -8 -1
-17 4 -20 4 -3 9 7 10 24 5 76 11 86 31 52 9 -15 12 -16 20 -4 5 8 18 12 30 8
12 -3 19 -1 15 4 -3 5 -13 9 -23 9 -10 0 -18 7 -18 15 0 19 6 19 53 -2 22 -9
44 -15 49 -14 6 2 30 7 55 12 l45 8 -50 -3 c-28 -3 -68 2 -90 10 -54 18 -75
18 -76 -3 -1 -21 -20 44 -20 69 0 9 -9 18 -20 21 -10 3 -19 0 -19 -5 0 -7 -4
-7 -12 0 -24 19 -68 11 -81 -15z"/>
<path d="M1681 1066 c-17 -34 -31 -69 -31 -77 1 -8 6 -1 13 14 l12 29 20 -23
c14 -16 16 -23 7 -26 -19 -7 -4 -23 16 -17 15 5 15 4 -1 -6 -14 -9 -22 -9 -33
0 -8 7 -14 8 -14 2 0 -27 57 -38 61 -11 1 5 2 15 3 22 2 18 29 15 44 -5 7 -10
18 -16 23 -13 5 4 9 1 9 -4 0 -14 -17 -14 -25 -1 -3 6 -13 10 -22 10 -9 0 -14
-3 -10 -6 6 -6 -30 -39 -95 -87 -44 -33 -62 -18 -21 18 15 13 31 25 36 25 4 0
7 5 7 11 0 5 -17 -2 -37 -18 l-38 -27 29 32 c17 18 25 32 20 32 -17 0 -57 -48
-49 -59 3 -6 2 -11 -4 -11 -12 0 -45 -59 -37 -67 7 -8 27 7 21 17 -3 4 2 13 9
19 19 16 16 -10 -3 -33 -8 -10 -9 -16 -3 -16 6 0 15 6 19 13 4 7 26 26 48 43
22 16 46 35 53 42 7 6 20 12 28 12 8 0 14 6 14 14 0 21 15 27 42 17 17 -7 18
-10 6 -10 -10 -1 -17 -4 -17 -8 3 -20 -2 -26 -11 -13 -8 11 -9 9 -5 -10 4 -21
-1 -29 -32 -50 -21 -14 -48 -24 -59 -23 -12 1 -30 -8 -40 -19 l-19 -21 30 18
30 19 -28 -30 c-15 -17 -24 -34 -20 -39 5 -4 3 -5 -4 -1 -6 3 -14 2 -18 -4 -3
-5 -11 -10 -17 -10 -6 0 -3 10 8 23 17 20 16 20 -9 -2 -27 -24 -36 -38 -17
-26 16 10 12 -11 -5 -25 -8 -7 -15 -19 -15 -26 0 -8 -7 -14 -16 -14 -9 0 -12
5 -8 13 4 6 0 5 -8 -3 -15 -15 -81 -160 -76 -165 2 -2 12 -5 23 -7 18 -3 20 2
19 40 -1 40 4 47 34 43 7 -1 12 9 12 24 0 14 4 25 9 25 4 0 6 -12 3 -26 -4
-20 -1 -25 9 -22 9 3 15 22 15 53 1 33 7 53 19 61 9 7 37 31 61 54 l44 41 0
-52 c0 -65 7 -61 12 7 2 31 11 58 21 68 9 10 17 13 17 7 0 -6 5 -11 10 -11 6
0 10 9 10 19 0 10 7 22 16 25 9 3 14 12 11 19 -3 8 4 19 14 25 31 20 23 71
-13 85 -10 3 -18 14 -18 23 0 10 5 14 15 10 8 -3 15 -1 15 5 0 6 10 9 23 7 12
-2 22 -9 22 -17 0 -8 7 -16 15 -18 13 -4 13 -3 0 6 -12 8 -8 11 20 12 30 2 31
3 8 6 -18 3 -28 11 -28 21 0 12 -3 13 -8 5 -5 -8 -13 -9 -22 -3 -8 5 -26 7
-40 3 -20 -5 -23 -3 -12 8 20 22 14 34 -8 14 -12 -11 -18 -26 -15 -35 3 -10
-2 -23 -10 -30 -13 -11 -20 -9 -40 10 -14 13 -25 26 -25 30 0 3 16 21 35 40
40 41 42 45 16 47 -13 1 -27 -16 -50 -61z"/>
<path d="M580 1056 c0 -67 10 -87 33 -64 17 16 11 38 -10 38 -23 0 -10 35 15
38 13 2 35 -7 53 -22 17 -14 41 -26 55 -26 26 0 27 3 18 37 -5 18 -11 21 -38
16 -26 -4 -38 0 -59 21 -14 14 -35 26 -47 26 -18 0 -20 -6 -20 -64z"/>
<path d="M1030 1110 c0 -5 -6 -9 -12 -7 -8 1 -13 -9 -14 -25 -1 -18 4 -28 13
-28 10 0 12 6 8 20 -4 11 -2 20 4 20 6 0 10 -4 9 -9 -2 -5 2 -9 7 -10 6 -1 10
4 9 9 -1 6 -2 17 -2 25 -2 16 -22 21 -22 5z"/>
<path d="M504 1099 c-3 -6 -1 -15 6 -19 10 -6 9 -9 -1 -13 -11 -4 -12 -7 -1
-18 6 -7 12 -37 12 -66 l0 -53 -57 -2 -58 -1 55 -6 c42 -5 56 -10 58 -23 3
-16 -6 -18 -80 -17 -46 1 -96 4 -112 8 -35 7 -116 2 -116 -8 0 -4 26 -5 58 -3
l59 4 6 -63 c11 -112 17 -129 40 -111 8 7 17 9 20 6 3 -4 3 30 0 75 l-5 81 91
0 c60 0 91 4 91 11 0 6 -9 9 -20 6 -15 -4 -20 0 -20 14 0 12 7 19 20 19 19 0
20 5 16 51 -7 69 -16 75 -16 11 0 -29 -4 -52 -10 -52 -6 0 -10 37 -10 90 0 83
-8 107 -26 79z m-124 -296 c0 -38 -5 -75 -11 -83 -8 -11 -9 -7 -5 18 3 18 2
31 -3 28 -9 -6 -21 40 -21 80 0 17 6 24 20 24 18 0 20 -7 20 -67z"/>
<path d="M212 1083 c-6 -2 -10 -9 -7 -14 4 -5 -1 -6 -9 -3 -9 3 -16 1 -16 -5
0 -6 -8 -11 -17 -11 -10 0 -27 -8 -38 -18 -17 -14 -20 -24 -14 -62 6 -44 6
-44 9 -10 2 19 3 41 3 48 -1 6 8 12 18 12 11 0 19 4 19 9 0 6 8 10 18 10 9 0
50 3 91 7 l73 7 -4 -72 c-2 -39 0 -71 4 -71 4 0 8 29 8 65 0 58 2 65 20 65 18
0 19 -5 13 -65 -4 -41 -2 -65 4 -65 6 0 10 15 10 33 0 93 0 94 42 101 22 3 43
11 47 17 4 8 -4 9 -27 4 -53 -11 -54 -11 -51 8 2 9 -2 17 -8 17 -5 0 -10 -10
-11 -22 -1 -22 -1 -22 -8 2 l-8 25 -5 -25 c-5 -24 -5 -24 -7 -2 0 13 -6 20
-11 17 -6 -4 -8 -11 -5 -16 4 -5 -20 -8 -57 -7 l-63 1 55 6 55 6 -40 7 c-45 9
-64 9 -83 1z"/>
<path d="M933 1065 c-59 -25 -40 -31 34 -10 10 3 -2 -4 -27 -16 -52 -25 -41
-37 13 -14 25 10 37 22 37 35 0 23 -13 24 -57 5z"/>
<path d="M2288 1063 c-24 -4 -26 -7 -18 -23 9 -16 3 -18 -67 -25 -58 -5 -78
-4 -84 7 -7 10 -9 9 -9 -4 0 -20 19 -22 119 -11 56 5 62 8 57 26 -4 16 -1 18
20 14 13 -2 26 -1 29 3 2 4 41 5 87 2 46 -2 80 -2 77 2 -7 8 -173 15 -211 9z"/>
<path d="M843 1039 c-31 -9 -50 -25 -41 -35 7 -6 88 30 88 39 0 8 -5 8 -47 -4z"/>
<path d="M1024 1035 c-16 -12 -16 -14 -3 -15 9 0 22 -7 30 -16 12 -14 14 -14
27 3 13 17 14 17 8 -3 -5 -16 2 -24 37 -40 34 -15 46 -17 55 -8 6 7 9 14 6 17
-3 2 7 2 21 0 14 -3 25 -9 25 -14 0 -5 4 -9 10 -9 5 0 7 6 4 14 -3 8 0 17 5
21 6 3 9 11 5 16 -4 6 -11 6 -20 -2 -19 -16 -52 -3 -35 14 9 9 14 9 21 -3 8
-13 10 -13 10 1 0 9 -7 19 -15 23 -8 3 -15 2 -15 -3 0 -5 -9 -11 -20 -14 -11
-3 -20 -10 -20 -17 0 -6 5 -8 13 -4 8 5 8 2 -2 -9 -15 -19 -29 -21 -51 -7 -13
9 -12 12 4 25 11 8 18 15 15 16 -2 0 -17 2 -33 4 -16 2 -34 9 -39 14 -14 14
-19 14 -43 -4z"/>
<path d="M2678 1022 c38 -34 32 -50 -8 -22 -16 11 -34 20 -41 20 -6 0 6 -13
27 -28 35 -26 40 -27 51 -13 13 18 -5 45 -42 62 -11 6 -5 -3 13 -19z"/>
<path d="M1 961 c1 -61 3 -68 16 -55 10 9 12 24 8 44 -4 19 -2 36 5 45 14 16
5 35 -16 35 -11 0 -14 -15 -13 -69z"/>
<path d="M2327 978 c7 -78 11 -82 12 -10 1 34 -3 62 -8 62 -4 0 -6 -24 -4 -52z"/>
<path d="M2510 1013 c0 -8 12 -13 29 -13 16 0 37 -3 47 -7 12 -4 15 -3 10 5
-4 7 -17 12 -29 12 -16 0 -18 3 -9 9 9 5 3 8 -17 7 -18 -1 -31 -6 -31 -13z"/>
<path d="M178 1014 c-4 -5 -6 -40 -5 -77 1 -48 5 -67 14 -67 9 0 11 8 7 24 -5
21 -1 25 24 31 17 3 48 4 69 1 28 -5 33 -4 18 3 -11 5 -36 10 -56 10 -36 1
-37 1 -32 39 3 27 1 33 -6 22 -6 -8 -11 -28 -12 -45 -2 -19 -4 -12 -8 20 -3
28 -9 45 -13 39z"/>
<path d="M769 1000 c-8 -9 -13 -22 -11 -28 2 -8 -10 -12 -37 -12 -22 0 -43 -5
-47 -12 -5 -8 5 -9 36 -4 31 5 46 3 52 -6 5 -8 8 0 9 22 1 24 3 28 6 13 2 -13
9 -23 14 -23 10 0 10 15 1 45 -6 19 -8 19 -23 5z"/>
<path d="M843 1005 c-18 -8 -33 -19 -33 -25 0 -7 3 -10 8 -8 4 3 22 11 40 18
17 8 32 18 32 22 0 11 -10 10 -47 -7z"/>
<path d="M956 1005 c-10 -8 -23 -12 -27 -9 -9 5 -11 0 -13 -28 -1 -7 -5 -17
-11 -21 -9 -8 6 -5 39 9 16 6 26 -24 26 -78 0 -21 3 -38 8 -38 4 0 6 20 4 44
-4 44 -4 44 33 48 33 4 42 -1 87 -45 27 -26 51 -54 52 -60 1 -7 5 -17 9 -23 4
-8 -8 -14 -38 -18 -25 -4 -45 -12 -45 -18 0 -6 10 -8 23 -4 12 3 34 6 49 6 17
0 28 6 31 18 4 16 5 16 6 0 0 -10 8 -18 16 -18 12 0 7 12 -17 43 -18 23 -37
45 -43 49 -5 4 1 8 15 9 22 0 21 2 -10 13 -29 11 -32 14 -15 18 14 4 11 6 -11
7 -23 1 -33 7 -37 22 -3 12 -10 18 -16 14 -6 -3 -14 1 -17 9 -3 9 -10 16 -15
16 -4 0 -6 -7 -3 -15 5 -12 -2 -15 -31 -15 -34 0 -37 2 -33 24 5 24 4 25 -23
10 -16 -8 -29 -12 -29 -10 0 3 13 12 29 21 27 13 31 13 46 -1 21 -22 30 -12
13 15 -15 24 -26 26 -52 6z"/>
<path d="M2370 1010 c14 -5 37 -8 52 -9 25 -1 27 -4 26 -36 -1 -19 2 -38 5
-42 4 -3 7 16 7 43 l0 49 -58 1 c-40 1 -50 -1 -32 -6z"/>
<path d="M2766 1012 c-3 -5 8 -36 24 -68 16 -32 30 -66 30 -74 0 -12 2 -12 9
-2 7 11 10 10 15 -3 8 -23 8 -27 -4 -20 -17 11 -11 -17 8 -32 12 -10 14 -16 5
-19 -19 -8 -16 -27 3 -20 13 5 15 0 9 -35 -5 -30 -4 -40 4 -35 6 4 18 0 27 -8
8 -9 12 -16 8 -16 -3 0 -1 -7 6 -15 11 -13 11 -18 0 -28 -10 -9 -11 -9 -6 0 4
7 -2 21 -12 31 -19 19 -19 19 -19 -6 0 -29 37 -75 44 -54 3 6 12 12 20 12 10
0 13 5 8 18 -4 9 -13 37 -22 62 -8 25 -24 53 -35 63 -14 14 -16 22 -9 31 8 9
1 33 -24 84 -19 40 -41 88 -49 107 -15 34 -29 44 -40 27z"/>
<path d="M140 985 c-2 -16 -3 -36 -3 -43 1 -7 -12 -19 -28 -28 -38 -19 -37
-25 2 -14 42 12 41 11 36 66 -2 35 -4 40 -7 19z"/>
<path d="M860 972 c-27 -13 -35 -24 -36 -44 -1 -17 4 -28 12 -28 8 0 14 5 14
10 0 6 21 10 47 10 48 0 56 8 10 12 -16 1 -23 6 -18 13 6 7 12 45 7 45 -1 0
-17 -8 -36 -18z"/>
<path d="M2291 955 c-1 -22 -5 -57 -10 -78 -5 -21 -5 -39 0 -43 5 -3 9 4 9 15
0 10 4 21 8 23 4 2 5 30 1 63 -5 49 -6 53 -8 20z"/>
<path d="M2480 953 c3 -56 2 -61 -17 -59 -12 1 -18 -8 -20 -27 -1 -18 2 -27
10 -24 7 2 11 12 11 21 -1 10 6 16 17 16 16 0 19 8 19 55 0 33 -4 55 -11 55
-6 0 -10 -16 -9 -37z"/>
<path d="M2620 953 c0 -16 -3 -39 -7 -52 -4 -18 -3 -22 6 -17 7 5 10 10 7 13
-2 3 7 16 22 29 15 13 21 24 15 24 -7 0 -13 -4 -13 -10 0 -5 -5 -10 -11 -10
-7 0 -9 10 -5 25 4 14 2 25 -4 25 -5 0 -10 -12 -10 -27z"/>
<path d="M2694 935 c-21 -19 -35 -38 -30 -42 4 -4 16 4 27 19 11 15 26 25 33
22 7 -3 16 2 19 10 11 29 -10 25 -49 -9z"/>
<path d="M596 941 c-35 -14 -2 -19 34 -5 30 11 32 12 10 13 -14 0 -34 -4 -44
-8z"/>
<path d="M1897 943 c-11 -10 -8 -53 3 -53 6 0 10 14 10 30 0 31 -2 35 -13 23z"/>
<path d="M795 908 c10 -46 30 -63 21 -19 -3 18 -6 37 -6 42 0 5 -5 9 -11 9 -7
0 -8 -12 -4 -32z"/>
<path d="M2745 928 c-4 -10 -12 -18 -17 -18 -11 0 -68 -58 -68 -70 0 -4 7 -14
16 -21 15 -12 16 -11 10 8 -6 17 -1 29 20 48 35 32 40 32 52 -7 23 -74 23 -88
5 -94 -10 -3 -35 -13 -56 -22 -27 -11 -41 -12 -45 -5 -4 6 -7 -9 -8 -33 0 -24
3 -44 7 -44 4 0 28 9 53 19 25 11 53 21 63 23 19 3 43 22 43 33 0 3 -4 4 -9 1
-5 -4 -12 0 -14 6 -4 9 -6 7 -6 -3 -1 -17 -89 -60 -120 -58 -9 0 -11 3 -4 5 7
3 10 11 7 18 -3 8 8 18 28 26 75 28 108 44 108 52 0 4 -5 7 -12 6 -6 -2 -18
28 -28 72 -12 52 -20 70 -25 58z"/>
<path d="M728 912 c-27 -2 -48 -8 -48 -13 0 -6 17 -8 45 -3 44 6 45 6 51 -24
3 -17 12 -33 20 -36 20 -8 26 10 9 24 -8 7 -15 21 -15 31 0 23 -5 25 -62 21z"/>
<path d="M1023 865 c1 -43 -1 -59 -10 -57 -7 1 -13 -2 -13 -8 0 -5 7 -10 15
-10 8 0 15 -9 15 -20 0 -11 4 -20 9 -20 11 0 5 86 -9 140 -8 31 -9 28 -7 -25z"/>
<path d="M2021 900 c-19 -11 -48 -24 -65 -31 l-31 -11 25 -7 25 -7 -25 -8
c-15 -4 -20 -10 -13 -13 7 -2 29 5 49 17 25 16 50 22 85 21 27 0 49 3 49 8 0
15 -47 22 -76 11 -15 -6 -29 -8 -32 -6 -9 10 52 27 75 21 26 -6 32 10 7 19
-24 9 -36 7 -73 -14z"/>
<path d="M2130 903 c0 -8 14 -13 37 -13 28 0 34 3 25 12 -16 16 -62 17 -62 1z"/>
<path d="M1250 901 l-25 -8 25 -5 c18 -4 12 -6 -20 -8 l-45 -3 45 -6 c44 -6
60 1 60 27 0 13 -3 13 -40 3z"/>
<path d="M2520 894 c0 -8 4 -14 9 -14 5 0 16 -3 25 -6 10 -4 16 -1 16 9 0 8
-11 17 -25 19 -17 4 -25 1 -25 -8z"/>
<path d="M42 887 c-6 -6 -13 -24 -17 -40 -4 -15 -11 -27 -16 -27 -5 0 -9 -12
-9 -27 0 -22 2 -25 10 -13 8 13 10 12 10 -2 0 -10 -5 -18 -10 -18 -6 0 -5 -6
2 -14 11 -12 15 -8 26 22 7 20 17 41 22 46 6 6 10 17 9 26 0 13 -1 13 -6 0 -8
-19 -33 -44 -39 -38 -9 10 18 68 29 61 7 -3 9 -3 5 2 -4 4 -3 14 3 22 7 8 8
13 1 13 -5 0 -14 -6 -20 -13z"/>
<path d="M595 890 c-18 -8 -18 -9 5 -8 14 0 36 4 50 8 24 8 24 8 -5 8 -16 0
-39 -3 -50 -8z"/>
<path d="M2320 865 c0 -19 4 -35 8 -35 4 0 8 16 9 35 1 19 -3 35 -8 35 -5 0
-9 -16 -9 -35z"/>
<path d="M2636 881 c-4 -6 -5 -15 -2 -19 6 -10 -59 -8 -91 3 -14 4 -23 3 -23
-3 0 -16 14 -22 63 -26 36 -4 49 0 63 15 12 14 14 23 7 30 -8 8 -13 8 -17 0z"/>
<path d="M110 864 l-25 -15 24 5 c22 5 23 3 18 -37 -4 -27 -2 -36 4 -26 5 7 9
26 9 42 0 15 5 27 10 27 6 0 10 5 10 10 0 14 -21 12 -50 -6z"/>
<path d="M617 855 c-4 -9 -11 -13 -17 -10 -6 4 -10 -5 -9 -22 0 -25 1 -26 9
-8 5 11 9 14 9 8 1 -7 5 -13 10 -13 14 0 22 30 13 47 -8 13 -10 13 -15 -2z"/>
<path d="M550 831 c0 -17 5 -33 10 -36 6 -4 10 8 10 29 0 20 -4 36 -10 36 -5
0 -10 -13 -10 -29z"/>
<path d="M1895 850 c-3 -5 -3 -14 0 -20 3 -5 -3 -10 -14 -10 -12 0 -21 -5 -21
-11 0 -6 12 -9 27 -7 22 2 28 9 30 31 2 27 -10 36 -22 17z"/>
<path d="M151 805 c1 -72 0 -75 -15 -75 -7 0 -16 -8 -19 -17 -2 -10 -8 -25
-11 -33 -4 -10 3 -19 25 -29 24 -10 29 -18 25 -35 -4 -15 1 -26 15 -34 21 -14
39 -8 39 11 0 7 -4 6 -10 -3 -5 -8 -10 -13 -10 -10 0 3 -4 21 -10 40 -9 33 -8
34 6 15 15 -20 15 -19 12 5 -2 21 -8 24 -30 22 -14 -2 -29 2 -34 9 -4 7 -3 10
4 5 6 -3 13 -2 17 3 3 6 13 7 22 4 12 -5 14 -3 8 7 -4 7 -10 38 -12 68 -7 79
-23 113 -22 47z"/>
<path d="M2350 840 c0 -12 37 -12 65 0 15 7 10 9 -22 9 -24 1 -43 -3 -43 -9z"/>
<path d="M180 811 c0 -16 5 -33 10 -36 6 -4 10 6 10 24 0 16 -4 33 -10 36 -6
4 -10 -6 -10 -24z"/>
<path d="M1220 825 c0 -7 5 -17 10 -20 6 -4 10 -15 8 -25 -2 -11 2 -20 7 -21
12 -2 34 -30 35 -43 0 -4 -10 -6 -23 -2 -21 5 -23 3 -19 -24 2 -17 10 -30 17
-30 7 0 20 -3 29 -6 9 -3 16 -1 16 6 0 6 -4 9 -9 6 -4 -3 -17 1 -27 10 -19 14
-19 15 1 12 11 -2 25 3 32 12 11 13 12 13 13 -2 0 -10 6 -18 14 -18 8 0 18 -5
22 -12 5 -7 3 -8 -6 -3 -9 5 -11 4 -6 -3 4 -7 13 -12 20 -12 16 0 27 -34 16
-47 -5 -4 -10 -17 -13 -28 -3 -15 -5 -13 -6 8 -1 36 -17 27 -16 -10 0 -29 0
-29 62 -25 20 2 22 6 17 35 -10 55 -31 90 -85 142 -29 28 -56 50 -60 50 -4 0
-11 4 -16 9 -5 5 -3 6 5 2 13 -8 16 12 4 30 -12 18 -42 25 -42 9z"/>
<path d="M1974 818 c-35 -17 -41 -25 -40 -50 0 -19 5 -27 14 -23 8 3 17 5 22
5 4 0 10 9 13 20 3 11 12 20 21 20 11 0 15 8 14 25 -1 14 -3 25 -3 24 0 0 -19
-10 -41 -21z"/>
<path d="M2064 795 c-1 -36 3 -45 17 -45 10 0 19 11 23 28 4 15 9 35 12 45 4
13 -1 17 -23 17 -28 0 -29 -2 -29 -45z"/>
<path d="M2124 790 c-12 -59 -2 -67 14 -11 14 45 15 61 4 61 -4 0 -13 -22 -18
-50z"/>
<path d="M2156 804 c-4 -19 -10 -42 -13 -50 -3 -8 -1 -14 5 -14 5 0 15 20 21
44 13 54 13 56 2 56 -5 0 -12 -16 -15 -36z"/>
<path d="M2447 823 c-7 -13 5 -83 14 -83 5 0 9 20 9 45 0 40 -11 58 -23 38z"/>
<path d="M2480 785 c0 -48 14 -60 24 -22 10 39 7 67 -9 67 -11 0 -15 -12 -15
-45z"/>
<path d="M2520 780 c0 -27 4 -50 9 -50 15 0 29 83 17 92 -21 15 -26 7 -26 -42z"/>
<path d="M2270 768 c0 -28 2 -49 4 -47 8 9 13 99 5 99 -5 0 -9 -23 -9 -52z"/>
<path d="M2320 727 c0 -53 4 -97 9 -97 9 0 5 179 -4 188 -3 3 -5 -38 -5 -91z"/>
<path d="M2570 809 c0 -4 7 -9 15 -11 10 -2 12 -7 5 -18 -9 -13 -11 -13 -20 0
-9 13 -10 13 -10 0 0 -8 -3 -25 -6 -37 -5 -17 -2 -23 11 -23 12 0 15 5 10 21
-5 15 -4 19 5 14 11 -7 50 21 50 37 0 4 -7 8 -16 8 -8 0 -13 4 -10 8 2 4 -4 8
-15 8 -10 0 -19 -3 -19 -7z"/>
<path d="M840 781 c0 -30 13 -41 25 -21 3 6 1 10 -5 10 -6 0 -8 5 -5 11 4 6
19 7 36 4 18 -4 29 -3 29 4 0 6 -11 11 -24 11 -13 0 -31 3 -40 6 -13 5 -16 -1
-16 -25z"/>
<path d="M802 770 c1 -37 22 -34 25 3 1 17 -3 27 -12 27 -9 0 -13 -11 -13 -30z"/>
<path d="M730 783 c-33 -6 -50 -23 -23 -23 36 0 83 12 83 21 0 9 -16 10 -60 2z"/>
<path d="M1536 743 c-9 -25 -14 -49 -11 -51 6 -6 6 -6 33 41 21 36 22 57 2 57
-4 0 -15 -21 -24 -47z"/>
<path d="M1740 738 c0 -28 2 -49 4 -47 8 9 13 99 5 99 -5 0 -9 -23 -9 -52z"/>
<path d="M1900 760 c0 -16 5 -30 10 -30 6 0 10 14 10 30 0 17 -4 30 -10 30 -5
0 -10 -13 -10 -30z"/>
<path d="M1860 745 c0 -39 14 -47 24 -12 9 35 7 47 -9 47 -10 0 -15 -11 -15
-35z"/>
<path d="M410 760 c0 -5 20 -9 48 -7 40 2 47 -1 44 -15 -2 -11 3 -18 13 -18 8
0 15 7 15 15 0 8 9 15 20 15 11 0 20 4 20 9 0 5 -36 9 -80 10 -49 1 -80 -3
-80 -9z"/>
<path d="M585 761 c-3 -6 16 -12 42 -14 l48 -3 -47 -2 c-54 -2 -66 -22 -14
-22 47 0 66 9 66 31 0 16 -8 19 -44 19 -25 0 -47 -4 -51 -9z"/>
<path d="M890 760 c8 -5 29 -10 45 -10 23 0 27 3 15 10 -8 5 -28 10 -45 10
-23 0 -27 -3 -15 -10z"/>
<path d="M197 753 c-9 -15 3 -77 14 -66 4 4 4 24 0 43 -4 20 -10 30 -14 23z"/>
<path d="M735 753 c-42 -6 -56 -23 -19 -23 39 0 74 10 74 21 0 9 -2 9 -55 2z"/>
<path d="M1093 743 c-13 -2 -23 -9 -23 -14 0 -12 50 -3 64 11 11 11 2 11 -41
3z"/>
<path d="M1162 708 c2 -23 9 -43 15 -45 8 -3 10 6 8 24 -2 15 -4 36 -4 46 -1
9 -6 17 -12 17 -6 0 -9 -16 -7 -42z"/>
<path d="M1194 728 c3 -13 6 -33 6 -45 0 -36 17 -27 22 11 5 43 0 56 -19 56
-11 0 -14 -6 -9 -22z"/>
<path d="M840 695 c0 -48 14 -60 24 -22 10 39 7 67 -9 67 -11 0 -15 -12 -15
-45z"/>
<path d="M895 730 c4 -6 11 -8 16 -5 5 4 9 -4 10 -17 0 -22 1 -22 9 -3 7 17 9
17 9 3 1 -24 17 -23 24 1 3 15 -2 20 -25 25 -42 8 -50 8 -43 -4z"/>
<path d="M1030 701 c0 -22 5 -43 10 -46 6 -4 10 10 10 34 0 22 -4 43 -10 46
-6 4 -10 -10 -10 -34z"/>
<path d="M293 720 c-30 -12 -29 -20 1 -20 13 0 26 7 30 15 6 17 1 18 -31 5z"/>
<path d="M800 713 c0 -29 12 -63 21 -63 5 0 9 18 9 40 0 29 -4 40 -15 40 -8 0
-15 -8 -15 -17z"/>
<path d="M986 648 c6 -77 10 -98 17 -87 7 12 -6 169 -14 169 -7 0 -8 -30 -3
-82z"/>
<path d="M1937 723 c-4 -3 -7 -21 -7 -40 0 -30 3 -33 30 -33 27 0 30 3 30 30
0 24 -4 30 -17 28 -10 -2 -17 3 -15 10 2 13 -10 16 -21 5z"/>
<path d="M2041 690 c-7 -25 -16 -38 -23 -34 -7 4 -8 3 -4 -4 4 -7 20 -12 37
-12 23 0 29 4 29 23 0 12 3 32 6 45 5 17 2 22 -13 22 -14 0 -23 -11 -32 -40z"/>
<path d="M2106 713 c-16 -60 -17 -83 -3 -83 11 0 16 14 19 50 3 49 -6 67 -16
33z"/>
<path d="M2136 714 c-10 -25 -7 -84 4 -84 6 0 10 23 10 50 0 52 -4 61 -14 34z"/>
<path d="M2448 680 c-3 -52 5 -67 16 -27 9 33 7 77 -3 77 -5 0 -11 -23 -13
-50z"/>
<path d="M2478 683 c-4 -46 -3 -61 6 -52 10 10 18 99 8 99 -5 0 -12 -21 -14
-47z"/>
<path d="M0 710 c0 -16 42 -60 58 -60 9 0 4 11 -15 34 -29 35 -43 44 -43 26z"/>
<path d="M713 713 c-15 -3 -23 -12 -23 -24 0 -16 7 -19 43 -19 29 0 38 -3 27
-9 -8 -6 -18 -7 -22 -5 -4 3 -8 0 -8 -5 0 -6 14 -11 30 -11 28 0 30 2 30 40 0
37 -2 40 -27 39 -16 -1 -38 -4 -50 -6z"/>
<path d="M2511 674 c-14 -55 -15 -51 13 -56 21 -4 26 0 35 35 11 46 9 53 -18
60 -16 4 -21 -3 -30 -39z"/>
<path d="M507 703 c-7 -14 14 -93 25 -93 5 0 7 7 4 16 -3 9 -6 31 -6 50 0 31
-13 46 -23 27z"/>
<path d="M540 691 c0 -34 12 -81 21 -81 5 0 9 23 9 50 0 38 -4 50 -15 50 -8 0
-15 -8 -15 -19z"/>
<path d="M584 682 c2 -15 5 -35 5 -44 1 -10 9 -18 18 -18 13 0 14 3 5 12 -21
21 -13 28 28 28 35 0 40 3 40 23 0 20 -5 22 -50 24 -49 1 -50 0 -46 -25z"/>
<path d="M1890 675 c0 -19 5 -35 10 -35 6 0 10 16 10 35 0 19 -4 35 -10 35 -5
0 -10 -16 -10 -35z"/>
<path d="M1856 684 c-10 -27 -7 -56 7 -52 14 5 23 68 9 68 -6 0 -13 -7 -16
-16z"/>
<path d="M360 680 c0 -31 13 -90 20 -90 3 0 5 13 2 29 -2 16 1 37 8 48 10 16
11 15 7 -9 -2 -15 -1 -25 3 -23 10 6 20 -46 20 -101 0 -26 5 -44 11 -44 8 0 9
18 4 58 -10 89 -26 142 -41 142 -8 0 -14 -6 -14 -12 0 -9 -4 -8 -10 2 -9 13
-10 13 -10 0z"/>
<path d="M0 673 c0 -12 49 -63 61 -63 4 0 9 -8 11 -17 3 -14 8 -9 21 16 21 41
21 41 2 41 -8 0 -15 -7 -15 -15 0 -22 -10 -19 -47 17 -18 18 -33 27 -33 21z"/>
<path d="M230 661 c0 -33 12 -81 21 -81 4 0 6 12 5 28 -2 15 -4 37 -5 50 -1
27 -21 30 -21 3z"/>
<path d="M1687 673 c-9 -19 -8 -83 2 -83 6 0 11 20 11 45 0 42 -4 55 -13 38z"/>
<path d="M1739 640 c-6 -45 -4 -58 7 -48 3 3 4 26 2 49 l-3 44 -6 -45z"/>
<path d="M213 620 c5 -28 12 -49 14 -46 7 7 -8 96 -17 96 -4 0 -3 -23 3 -50z"/>
<path d="M1790 630 c-23 -20 -28 -29 -15 -24 41 12 65 28 65 41 0 20 -12 16
-50 -17z"/>
<path d="M2640 649 c0 -21 -100 -89 -125 -85 -21 3 -35 -10 -35 -34 0 -13 2
-13 9 -1 5 8 16 11 26 8 9 -4 13 -11 10 -17 -3 -5 -1 -10 5 -10 6 0 8 -5 5
-11 -4 -6 -13 -8 -21 -5 -8 3 -11 0 -7 -9 4 -11 10 -12 24 -4 15 7 19 6 19 -6
0 -8 4 -15 9 -15 12 0 1 42 -16 58 -20 20 -16 26 26 50 21 12 44 29 51 37 11
13 15 12 31 -8 l19 -22 -6 30 c-4 17 -10 37 -15 45 -7 13 -8 13 -9 -1z"/>
<path d="M2674 644 c3 -9 6 -21 6 -28 0 -7 7 -21 15 -32 14 -18 15 -17 9 11
-11 54 -15 65 -26 65 -5 0 -7 -7 -4 -16z"/>
<path d="M1170 610 c0 -30 4 -40 16 -40 12 0 15 6 10 23 -3 12 -6 30 -6 40 0
9 -4 17 -10 17 -5 0 -10 -18 -10 -40z"/>
<path d="M1204 628 c3 -12 5 -33 5 -45 1 -13 6 -23 12 -23 15 0 7 82 -9 88 -8
2 -11 -4 -8 -20z"/>
<path d="M817 634 c-4 -4 -7 -27 -7 -51 0 -32 4 -43 15 -43 10 0 15 9 14 28
-1 39 -13 75 -22 66z"/>
<path d="M850 589 c0 -36 4 -49 13 -46 6 2 11 13 9 23 -1 10 -3 31 -4 47 -2
49 -18 29 -18 -24z"/>
<path d="M1041 603 c-1 -24 4 -43 9 -43 12 0 12 37 0 65 -7 15 -9 10 -9 -22z"/>
<path d="M1250 633 c-1 -5 -3 -25 -6 -45 -3 -22 -1 -38 4 -38 6 0 17 -3 26 -6
12 -5 16 1 16 24 0 17 -5 34 -10 37 -8 5 -7 11 1 21 9 11 7 14 -10 14 -11 0
-21 -3 -21 -7z"/>
<path d="M767 624 c-3 -3 -3 -12 0 -20 3 -9 -2 -14 -15 -14 -15 0 -22 -8 -25
-27 l-4 -28 -2 28 c-1 34 -21 26 -21 -9 0 -22 4 -24 51 -24 43 0 50 3 45 16
-3 9 -6 31 -6 50 0 32 -8 42 -23 28z"/>
<path d="M1932 596 c0 -44 -11 -78 -23 -71 -5 3 -12 -12 -15 -35 -5 -30 -12
-41 -28 -45 -11 -2 -41 -9 -66 -14 l-45 -10 57 5 c52 5 56 4 51 -14 -3 -15
-17 -22 -56 -27 -29 -5 -45 -10 -36 -12 9 -2 34 0 57 5 44 10 50 4 53 -58 1
-23 2 -22 8 5 4 17 3 33 -2 36 -13 9 -11 20 5 30 11 7 10 11 -2 19 -10 6 -3 8
25 3 47 -7 41 6 -7 17 -30 8 -28 8 17 7 28 0 55 -6 60 -12 6 -8 19 -9 35 -5
25 8 25 8 -5 11 -25 2 -22 3 15 9 37 6 30 7 -42 8 -87 2 -101 8 -75 34 8 7 20
30 26 51 7 20 17 37 23 37 6 0 8 7 5 15 -4 8 -2 17 3 20 18 11 10 25 -14 25
-21 0 -24 -5 -24 -34z"/>
<path d="M1996 621 c-7 -11 17 -21 49 -21 36 0 39 17 4 24 -41 8 -47 8 -53 -3z"/>
<path d="M2130 603 c0 -8 26 -11 80 -11 44 0 80 4 80 8 0 5 -36 10 -80 12 -56
2 -80 0 -80 -9z"/>
<path d="M2320 581 c0 -28 2 -32 15 -21 8 7 25 10 40 6 14 -4 25 -2 25 4 0 5
-16 10 -36 10 -19 0 -33 4 -30 9 8 12 54 20 60 9 2 -5 3 -3 2 4 -2 8 -18 13
-39 13 -35 0 -37 -2 -37 -34z"/>
<path d="M2824 606 c-15 -15 -5 -66 12 -59 8 3 14 12 14 20 0 8 -4 11 -10 8
-15 -9 -12 6 5 25 11 12 12 17 2 17 -7 0 -17 -5 -23 -11z"/>
<path d="M590 598 c1 -46 14 -88 29 -88 28 0 39 14 34 42 -5 24 -9 27 -31 21
-17 -4 -23 -2 -18 6 4 6 16 11 27 11 10 0 19 5 19 10 0 6 -13 10 -30 10 -17 0
-30 -5 -30 -12z"/>
<path d="M1090 596 c0 -8 -6 -16 -12 -19 -7 -2 1 -7 19 -11 18 -4 40 -3 50 3
16 9 16 10 -4 11 -14 0 -23 6 -23 15 0 8 -7 15 -15 15 -8 0 -15 -6 -15 -14z"/>
<path d="M1770 589 c-36 -14 -79 -20 -125 -20 -75 1 -75 -18 0 -20 46 -2 34
-5 -47 -14 l-58 -6 0 -62 c0 -39 4 -57 9 -48 5 7 6 31 4 52 -6 44 -5 45 75 53
l52 5 0 -53 c0 -60 3 -58 -92 -71 -27 -4 -48 -12 -48 -17 0 -5 8 -7 18 -4 9 3
29 8 45 11 15 3 38 7 52 10 20 4 25 1 25 -14 0 -14 -9 -21 -38 -26 -20 -3 -44
-11 -52 -16 -12 -8 -11 -9 5 -6 11 3 37 8 57 12 l38 6 -3 -63 c-2 -63 -2 -63
-34 -66 -17 -2 -37 -10 -45 -19 -12 -15 -10 -16 17 -9 17 4 38 9 48 12 16 5
18 2 12 -15 -4 -12 -2 -21 4 -21 13 0 14 7 11 99 -1 53 2 76 12 82 10 7 9 9
-4 9 -11 0 -18 8 -18 20 0 13 7 20 19 20 16 0 21 -10 26 -57 11 -100 15 -82 9
42 -6 124 -14 168 -14 77 0 -45 -3 -52 -20 -52 -18 0 -20 7 -20 55 l0 54 78
26 c42 14 65 23 50 21 -16 -2 -28 -2 -28 0 0 2 12 10 28 18 37 21 18 18 -48
-5z"/>
<path d="M2434 562 c-3 -26 -13 -62 -20 -81 -13 -30 -17 -33 -45 -27 -18 3
-28 2 -24 -4 3 -6 13 -10 22 -10 14 0 14 -3 -2 -20 -16 -18 -16 -20 -2 -20 21
0 21 -8 3 -29 -8 -9 -17 -46 -21 -82 -7 -64 -6 -66 16 -64 29 2 38 25 10 25
-18 0 -20 5 -15 33 11 62 26 97 45 108 25 13 16 29 -14 22 -21 -4 -21 -4 -2 8
28 17 33 26 52 89 9 30 18 49 20 42 3 -6 9 -10 14 -6 14 8 11 24 -6 24 -8 0
-15 4 -15 10 0 5 7 7 15 4 9 -4 15 0 15 8 0 7 -9 14 -19 15 -16 1 -21 -7 -27
-45z"/>
<path d="M2496 594 c-3 -8 -1 -14 3 -14 5 0 16 -3 25 -6 10 -4 16 -1 16 9 0
20 -37 29 -44 11z"/>
<path d="M2926 595 c-17 -13 -18 -18 -6 -60 7 -25 16 -45 21 -45 14 0 27 33
24 65 -4 63 -6 65 -39 40z"/>
<path d="M525 575 c3 -14 7 -36 10 -50 3 -14 10 -25 16 -25 6 0 8 8 5 18 -2 9
-7 32 -11 50 -4 17 -11 32 -16 32 -5 0 -7 -11 -4 -25z"/>
<path d="M550 594 c0 -22 24 -94 32 -94 5 0 7 8 4 18 -2 9 -7 32 -11 50 -4 17
-11 32 -16 32 -5 0 -9 -3 -9 -6z"/>
<path d="M1980 581 c0 -9 80 -22 92 -15 5 3 6 10 3 15 -8 11 -95 12 -95 0z"/>
<path d="M135 570 c-3 -6 4 -14 17 -19 30 -11 45 -29 53 -64 4 -15 12 -27 17
-27 10 0 6 37 -8 74 -5 13 -4 17 4 12 6 -4 14 -22 18 -41 4 -26 11 -35 26 -35
10 0 17 4 13 10 -3 5 -6 25 -7 44 -1 36 -1 36 -40 31 -27 -3 -44 0 -54 10 -18
17 -30 19 -39 5z"/>
<path d="M370 536 c0 -25 5 -48 10 -51 6 -4 10 13 10 44 0 28 -4 51 -10 51 -5
0 -10 -20 -10 -44z"/>
<path d="M666 553 c8 -32 12 -39 19 -31 9 8 -6 58 -16 58 -5 0 -6 -12 -3 -27z"/>
<path d="M2130 564 c0 -12 4 -14 13 -7 6 5 42 8 80 7 37 -1 67 2 67 7 0 5 -36
9 -80 9 -67 0 -80 -3 -80 -16z"/>
<path d="M2620 562 c0 -5 -11 -15 -25 -22 -14 -7 -25 -17 -25 -22 0 -5 14 -1
30 9 25 15 42 43 25 43 -3 0 -5 -4 -5 -8z"/>
<path d="M53 553 c-7 -2 -13 -18 -13 -34 0 -31 -8 -36 -30 -16 -8 6 -6 1 5
-12 11 -13 18 -26 15 -29 -3 -3 5 -7 18 -8 16 -3 22 1 22 14 0 10 -5 23 -10
28 -7 7 -8 19 -1 37 6 15 9 27 8 26 -1 0 -8 -3 -14 -6z"/>
<path d="M998 545 c-3 -6 -3 -26 1 -45 4 -23 10 -30 15 -22 4 7 12 9 18 6 6
-4 9 -1 7 5 -3 7 -9 11 -14 9 -5 -2 -12 11 -15 27 -3 17 -8 25 -12 20z"/>
<path d="M1044 518 c3 -18 10 -60 16 -92 5 -33 10 -61 10 -63 0 -2 -9 -3 -20
-3 -16 0 -21 9 -26 50 -4 28 -10 50 -14 50 -4 0 -3 -23 1 -52 5 -29 7 -53 6
-54 -1 -1 -38 -5 -82 -9 l-80 -7 0 45 c0 43 -9 67 -20 55 -3 -3 -2 -31 1 -62
6 -50 10 -57 25 -53 12 3 19 0 19 -9 0 -8 5 -14 11 -14 6 0 9 6 6 14 -4 10 8
16 51 20 31 4 72 10 90 13 27 4 32 2 32 -15 0 -11 -6 -23 -12 -25 -8 -4 -7 -6
4 -6 13 -1 18 -16 23 -76 4 -41 12 -75 17 -75 5 0 7 12 4 27 -2 16 -7 49 -11
74 -6 46 -5 46 26 53 17 3 46 6 63 6 30 0 32 -3 33 -34 1 -19 6 -42 13 -53 9
-14 10 -8 5 35 -5 48 -4 52 15 52 11 0 20 5 20 11 0 7 -10 9 -25 5 -18 -5 -25
-2 -25 9 0 8 -4 15 -10 15 -5 0 -10 -7 -10 -15 0 -11 -12 -15 -45 -16 -25 -1
-51 -2 -57 -3 -7 -1 -14 7 -16 16 -3 14 10 17 87 23 50 4 88 11 86 16 -3 4
-20 6 -38 4 -17 -2 -55 -6 -84 -9 l-51 -5 -11 63 c-6 34 -11 77 -11 94 0 18
-5 32 -10 32 -7 0 -9 -13 -6 -32z"/>
<path d="M1080 540 c0 -5 18 -10 40 -10 22 0 40 5 40 10 0 6 -18 10 -40 10
-22 0 -40 -4 -40 -10z"/>
<path d="M1176 538 c5 -7 8 -22 9 -32 0 -12 8 -20 23 -22 25 -4 30 13 7 22 -8
4 -15 10 -15 15 0 4 7 6 16 2 11 -4 15 -2 12 7 -2 7 -17 15 -32 17 -21 3 -26
1 -20 -9z"/>
<path d="M917 533 c-9 -2 -15 -9 -12 -14 9 -14 51 -11 65 6 10 13 9 15 -11 14
-13 -1 -32 -3 -42 -6z"/>
<path d="M1240 524 c0 -8 6 -15 13 -16 74 -9 90 2 27 19 -32 8 -40 8 -40 -3z"/>
<path d="M2090 506 c0 -20 5 -36 10 -36 6 0 10 13 10 29 0 17 -4 33 -10 36 -6
4 -10 -8 -10 -29z"/>
<path d="M2266 494 c-10 -76 -8 -104 9 -104 8 0 15 -6 15 -12 0 -9 4 -8 10 2
15 23 12 29 -10 23 -15 -4 -20 0 -20 16 0 12 6 21 15 21 8 0 15 7 15 16 0 8 7
22 15 30 8 9 14 25 14 37 -2 22 -2 22 -6 0 -2 -13 -11 -23 -19 -23 -8 0 -14
-10 -14 -25 0 -14 -4 -25 -9 -25 -5 0 -6 20 -3 45 6 59 -3 58 -12 -1z"/>
<path d="M2836 525 c-16 -12 -17 -18 -8 -27 7 -7 12 -22 12 -34 0 -13 4 -25
10 -29 10 -6 6 47 -4 64 -4 5 -2 12 3 15 5 4 12 -7 16 -24 4 -16 10 -32 14
-35 5 -2 3 16 -2 40 -11 50 -13 51 -41 30z"/>
<path d="M843 523 c-13 -2 -23 -11 -23 -20 0 -10 6 -13 16 -9 9 3 22 6 30 6 8
0 14 7 14 15 0 8 -3 14 -7 14 -5 -1 -18 -4 -30 -6z"/>
<path d="M1340 513 c0 -9 13 -13 40 -13 29 0 40 4 40 15 0 11 -10 14 -40 13
-26 -1 -40 -6 -40 -15z"/>
<path d="M2130 499 c0 -17 4 -28 10 -24 6 3 10 17 10 31 0 13 -4 24 -10 24 -5
0 -10 -14 -10 -31z"/>
<path d="M2451 515 c-1 -12 -10 -37 -20 -58 -10 -20 -15 -37 -11 -37 12 0 43
86 37 102 -3 8 -6 5 -6 -7z"/>
<path d="M2617 523 c-14 -13 -7 -32 11 -27 9 2 7 -1 -5 -7 -31 -17 -30 -38 2
-31 32 6 37 15 29 47 -6 24 -23 33 -37 18z"/>
<path d="M751 511 c-34 -6 -56 -31 -28 -31 37 0 77 14 77 26 0 8 -3 13 -7 13
-5 -1 -23 -4 -42 -8z"/>
<path d="M2960 490 c-12 -22 -5 -60 11 -60 5 0 6 -12 3 -27 -7 -26 -6 -27 9
-11 15 14 16 24 6 67 -6 28 -12 51 -14 51 -3 0 -9 -9 -15 -20z"/>
<path d="M622 492 c-7 -5 -10 -19 -8 -33 3 -13 5 -27 5 -30 1 -10 81 12 81 22
0 5 -17 10 -37 10 -21 1 -30 3 -20 6 9 2 17 8 17 13 0 5 7 7 15 4 8 -4 15 -1
15 5 0 13 -49 15 -68 3z"/>
<path d="M915 490 c-15 -7 -10 -9 23 -9 23 -1 42 4 42 9 0 12 -37 12 -65 0z"/>
<path d="M1240 491 c0 -5 8 -11 18 -15 9 -3 23 -9 30 -12 6 -3 12 1 12 9 0 8
-10 17 -22 21 -31 8 -38 7 -38 -3z"/>
<path d="M546 482 c-2 -2 1 -20 6 -40 6 -20 12 -55 15 -77 3 -22 10 -44 15
-50 11 -10 5 56 -8 89 -3 9 -2 16 4 16 8 0 36 -110 29 -115 -1 -2 -37 -6 -79
-10 l-78 -7 0 51 c0 28 -3 51 -8 51 -9 0 0 -126 11 -136 4 -4 7 0 7 8 0 13 17
18 83 23 l83 7 -15 79 c-11 57 -19 78 -28 75 -7 -3 -13 1 -13 9 0 9 6 12 15 9
11 -5 13 -2 9 9 -5 13 -38 20 -48 9z"/>
<path d="M1340 475 c0 -18 16 -20 23 -2 4 10 6 10 6 0 1 -19 51 -16 51 2 0 11
-11 15 -40 15 -29 0 -40 -4 -40 -15z"/>
<path d="M742 473 c-18 -3 -32 -9 -30 -14 2 -6 7 -10 11 -10 4 1 25 1 47 1 29
0 40 4 40 15 0 15 -5 15 -68 8z"/>
<path d="M1500 456 c0 -31 10 -57 19 -52 10 7 1 76 -10 76 -5 0 -9 -11 -9 -24z"/>
<path d="M2726 453 c12 -50 23 -73 35 -73 6 0 9 6 6 14 -3 8 -9 31 -13 50 -3
21 -12 36 -20 36 -11 0 -13 -7 -8 -27z"/>
<path d="M386 410 c3 -36 7 -79 10 -97 5 -27 3 -32 -18 -36 -23 -4 -23 -4 -1
-6 15 -1 24 -9 28 -23 20 -90 25 -119 26 -163 1 -38 3 -44 8 -25 4 14 3 45 -1
70 -4 25 -15 95 -23 155 -23 154 -36 211 -29 125z"/>
<path d="M2688 465 c-9 -9 18 -89 32 -93 9 -3 10 4 5 29 -13 68 -21 80 -37 64z"/>
<path d="M6 445 c3 -7 12 -16 20 -19 11 -4 12 -10 5 -24 -13 -24 -22 -66 -27
-117 -2 -25 5 -8 19 45 12 47 26 90 30 97 4 6 2 15 -4 19 -8 4 -9 3 -5 -4 4
-7 2 -12 -3 -12 -6 0 -11 4 -11 9 0 5 -7 11 -14 14 -10 4 -13 1 -10 -8z"/>
<path d="M260 449 c0 -6 -9 -8 -21 -4 -20 7 -21 4 -15 -20 7 -26 5 -27 -21
-21 -21 5 -24 4 -13 -4 19 -13 60 -13 60 0 0 6 7 10 15 10 10 0 15 -11 16 -37
1 -28 3 -31 6 -13 3 14 12 33 20 43 9 9 11 17 6 17 -6 0 -13 9 -16 20 -5 21
-37 29 -37 9z"/>
<path d="M2520 442 c0 -11 8 -26 19 -36 18 -16 18 -15 7 19 -12 38 -26 47 -26
17z"/>
<path d="M80 445 c0 -8 65 -35 82 -35 7 1 2 7 -12 14 -33 18 -70 29 -70 21z"/>
<path d="M871 420 c0 -19 4 -44 9 -55 7 -16 9 -11 9 20 0 22 -4 47 -9 55 -7
11 -10 6 -9 -20z"/>
<path d="M1267 438 c-7 -23 5 -48 24 -48 16 0 17 4 8 30 -11 31 -24 39 -32 18z"/>
<path d="M2103 443 c19 -3 27 -10 27 -24 0 -10 -4 -19 -10 -19 -5 0 -10 7 -10
15 0 22 -17 18 -23 -5 -4 -15 0 -20 14 -20 14 0 20 -10 26 -42 4 -24 6 -46 5
-50 -1 -5 3 -8 8 -8 6 0 10 16 10 35 0 19 -4 35 -10 35 -5 0 -7 7 -4 15 4 10
21 16 48 17 l41 1 -40 6 c-29 4 -41 11 -43 25 -3 17 1 18 47 13 28 -3 53 -2
56 4 4 5 -28 8 -82 8 -48 -1 -76 -4 -60 -6z"/>
<path d="M2620 439 c-13 -6 -28 -15 -32 -22 -13 -21 -9 -47 8 -47 10 0 14 6
10 15 -3 8 -1 15 4 15 6 0 10 -5 10 -10 0 -6 11 -8 28 -4 24 7 26 6 13 -9 -12
-15 -11 -17 8 -17 17 0 21 5 17 18 -3 9 -8 29 -12 45 -7 29 -15 31 -54 16z"/>
<path d="M465 431 c-3 -5 0 -13 7 -17 6 -4 14 -2 16 4 2 6 9 9 17 6 7 -3 16
-1 20 5 4 7 -5 11 -24 11 -16 0 -32 -4 -36 -9z"/>
<path d="M2885 418 c4 -15 8 -39 9 -53 0 -14 5 -25 10 -25 11 0 -2 82 -15 95
-7 7 -8 1 -4 -17z"/>
<path d="M2438 408 c-7 -13 -13 -32 -13 -42 0 -11 -6 -21 -13 -23 -8 -3 -10 2
-6 14 5 16 4 16 -10 -1 -9 -11 -16 -28 -16 -39 0 -10 -5 -27 -11 -38 -9 -18
-8 -20 13 -17 19 2 22 8 20 31 -2 15 1 27 7 27 7 0 17 11 23 25 6 14 17 25 25
25 11 0 33 37 33 56 0 15 -42 0 -52 -18z"/>
<path d="M791 406 c-7 -9 -9 -16 -4 -16 6 0 15 -10 21 -22 12 -25 14 -7 3 31
-6 21 -8 22 -20 7z"/>
<path d="M2864 370 c5 -27 14 -50 19 -50 5 0 7 6 4 14 -3 8 -9 31 -13 50 -3
20 -9 36 -13 36 -4 0 -3 -22 3 -50z"/>
<path d="M57 383 c-6 -34 2 -46 10 -14 4 14 11 20 20 17 8 -3 19 -6 24 -6 6 0
8 -4 5 -9 -4 -5 4 -7 16 -3 20 5 18 7 -17 23 -53 23 -52 23 -58 -8z"/>
<path d="M2015 400 c3 -5 17 -10 31 -10 13 0 24 5 24 10 0 6 -14 10 -31 10
-17 0 -28 -4 -24 -10z"/>
<path d="M631 385 c1 -29 17 -73 19 -55 4 25 -1 54 -11 65 -5 5 -9 2 -8 -10z"/>
<path d="M1396 392 c-7 -12 15 -21 63 -27 17 -2 31 1 31 6 0 5 -15 9 -33 9
-18 0 -38 5 -44 11 -7 7 -13 7 -17 1z"/>
<path d="M1980 383 l35 -17 -33 -4 c-29 -3 -32 -6 -26 -30 9 -37 14 -40 14 -9
0 22 5 27 25 27 18 0 29 -8 40 -32 11 -24 13 -26 9 -8 -12 51 -44 90 -72 90
-26 -1 -26 -1 8 -17z"/>
<path d="M1500 380 c0 -5 4 -10 8 -10 5 0 9 -7 9 -15 0 -8 -5 -15 -11 -15 -7
0 -7 -3 0 -10 7 -7 19 -8 37 -1 31 12 36 26 7 18 -18 -5 -26 7 -21 36 0 4 -6
7 -14 7 -8 0 -15 -4 -15 -10z"/>
<path d="M190 362 c48 -23 61 -37 53 -58 -5 -12 -3 -15 6 -9 10 6 11 2 6 -15
-6 -19 -4 -21 17 -15 22 7 23 7 3 -9 -20 -15 -20 -15 0 -16 11 -1 14 -4 8 -7
-18 -7 -16 -49 3 -78 11 -18 14 -35 9 -64 -6 -35 -3 -44 19 -66 14 -14 35 -25
48 -25 26 0 13 17 -17 22 -21 3 -48 44 -41 62 2 6 8 -1 14 -15 6 -15 18 -29
26 -32 14 -6 16 5 14 76 -1 80 -1 81 -8 27 l-7 -55 1 65 c1 64 2 65 31 71 29
7 29 7 -7 8 -31 1 -35 4 -31 21 3 12 -1 22 -11 26 -9 3 -14 9 -11 14 2 4 1 27
-4 51 -6 30 -9 36 -10 17 -1 -14 -4 -34 -8 -44 -5 -13 -3 -15 7 -9 8 5 11 3 8
-5 -2 -7 -12 -14 -21 -16 -11 -1 -18 8 -22 30 -5 25 -15 36 -46 49 -51 22 -75
21 -29 -1z m129 -107 c5 2 6 -7 3 -22 -3 -14 -1 -23 4 -20 5 3 7 -24 5 -61 -4
-82 -16 -59 -24 48 -3 41 -3 69 0 62 3 -6 8 -10 12 -7z"/>
<path d="M1270 370 c0 -5 10 -10 23 -11 21 0 21 -1 2 -9 -18 -8 -17 -9 7 -9
36 -1 43 14 12 28 -31 14 -44 14 -44 1z"/>
<path d="M2550 349 c0 -18 -3 -19 -14 -10 -18 15 -56 -2 -56 -24 0 -17 -16
-20 -25 -5 -11 18 -22 10 -28 -20 -4 -16 -16 -50 -27 -74 -21 -48 -27 -91 -10
-81 6 4 4 -11 -4 -32 -8 -21 -17 -51 -21 -67 -5 -24 -3 -27 10 -22 9 3 18 6
19 6 1 0 0 17 -2 38 -2 28 -1 33 7 22 10 -13 14 -11 31 10 16 21 17 25 4 28
-12 3 -14 11 -9 30 4 15 10 29 15 32 5 3 12 18 15 33 4 15 11 30 16 33 5 3 9
11 9 17 0 7 -4 6 -10 -3 -5 -8 -12 -11 -16 -7 -14 13 32 46 57 41 21 -5 22 -4
7 6 -29 18 -21 29 14 19 37 -10 34 -12 43 24 6 21 4 27 -9 27 -10 0 -16 -8
-16 -21z m-106 -127 c-4 -12 -10 -22 -15 -22 -10 0 -12 21 -3 45 9 24 24 4 18
-23z"/>
<path d="M2754 353 c3 -10 8 -30 12 -45 6 -29 18 -36 29 -18 4 6 10 8 14 6 4
-3 13 -1 21 5 11 6 8 9 -12 9 -18 0 -28 5 -28 15 0 8 -4 15 -10 15 -5 0 -10 7
-10 15 0 8 -5 15 -11 15 -6 0 -8 -8 -5 -17z"/>
<path d="M1910 324 c0 -21 4 -33 10 -29 6 3 10 19 10 36 0 16 -4 29 -10 29 -5
0 -10 -16 -10 -36z"/>
<path d="M2167 298 c-3 -35 -4 -65 -1 -67 2 -3 12 3 22 13 11 12 13 20 6 23
-7 2 -10 20 -6 48 3 27 1 45 -5 45 -6 0 -13 -28 -16 -62z"/>
<path d="M2715 343 c3 -10 9 -30 12 -45 5 -28 17 -36 27 -20 9 15 -17 82 -32
82 -9 0 -12 -6 -7 -17z"/>
<path d="M1344 339 c-3 -5 -18 -9 -35 -9 -16 0 -29 -3 -29 -7 0 -7 84 -8 100
-2 3 1 30 1 60 1 l55 -1 -50 10 c-81 16 -95 17 -101 8z"/>
<path d="M2675 340 c-3 -5 -1 -10 5 -10 22 0 -1 -20 -33 -28 -26 -7 -31 -13
-29 -33 2 -13 5 -25 6 -26 2 -2 23 4 48 13 l46 15 -10 40 c-10 39 -21 48 -33
29z"/>
<path d="M770 326 c-31 -7 -38 -11 -24 -13 26 -5 92 11 79 18 -6 3 -30 1 -55
-5z"/>
<path d="M1823 323 c4 -3 -3 -18 -15 -32 -21 -24 -22 -25 -1 -8 11 10 23 15
26 10 7 -12 -26 -78 -40 -78 -6 0 -15 -3 -19 -7 -4 -5 7 -8 25 -8 18 0 30 4
27 9 -4 5 1 22 11 38 17 31 12 83 -9 83 -6 0 -8 -3 -5 -7z"/>
<path d="M2910 320 c0 -5 -7 -10 -15 -10 -16 0 -20 -16 -6 -24 5 -3 12 1 15
10 8 20 26 8 26 -17 0 -10 5 -19 11 -19 7 0 8 7 4 18 -4 9 -10 25 -12 35 -6
18 -23 24 -23 7z"/>
<path d="M663 313 c-13 -2 -23 -8 -23 -13 0 -11 61 -1 75 11 9 9 -11 10 -52 2z"/>
<path d="M1550 281 c0 -22 5 -43 10 -46 6 -4 10 12 10 39 0 25 -4 46 -10 46
-5 0 -10 -18 -10 -39z"/>
<path d="M938 297 c-49 -5 -88 -14 -88 -19 0 -5 8 -7 19 -3 16 5 20 -2 26 -51
4 -33 10 -52 14 -45 5 7 5 31 0 54 -4 23 -6 43 -5 44 2 2 30 6 63 9 l61 7 7
-67 c4 -37 8 -79 8 -92 0 -13 3 -27 8 -30 12 -7 11 12 -2 118 -7 48 -14 87
-18 87 -3 -1 -45 -6 -93 -12z"/>
<path d="M1510 286 c0 -31 10 -57 19 -52 10 7 1 76 -10 76 -5 0 -9 -11 -9 -24z"/>
<path d="M1255 290 c-9 -14 4 -70 16 -70 6 0 7 15 3 38 -8 44 -10 47 -19 32z"/>
<path d="M2533 262 c-11 -23 -17 -44 -13 -47 5 -3 77 13 88 21 2 1 -3 15 -12
31 l-15 28 -1 -25 c-1 -25 -1 -24 -13 4 l-13 30 -21 -42z"/>
<path d="M30 282 c0 -13 32 -32 54 -32 9 0 16 5 16 10 0 6 -10 10 -23 10 -13
0 -28 5 -35 12 -9 9 -12 9 -12 0z"/>
<path d="M120 271 c0 -5 16 -11 36 -13 34 -4 50 3 37 16 -10 9 -73 7 -73 -3z"/>
<path d="M745 270 c-17 -7 -15 -9 10 -8 17 0 41 4 55 8 23 7 22 8 -10 8 -19 0
-44 -3 -55 -8z"/>
<path d="M665 260 c-16 -7 -13 -9 18 -9 20 -1 37 4 37 9 0 12 -27 12 -55 0z"/>
<path d="M1740 236 c0 -20 5 -36 10 -36 6 0 10 13 10 29 0 17 -4 33 -10 36 -6
4 -10 -8 -10 -29z"/>
<path d="M1956 255 c-4 -12 4 -15 44 -15 38 0 50 4 50 15 0 18 -16 20 -23 3
-4 -10 -6 -10 -6 0 -1 17 -58 15 -65 -3z"/>
<path d="M2060 257 c0 -9 6 -18 13 -20 10 -4 10 -6 0 -6 -7 -1 -13 -8 -13 -16
0 -12 15 -15 75 -15 72 0 76 1 85 26 6 14 14 22 20 19 15 -9 12 1 -5 15 -12
10 -16 8 -25 -14 -17 -47 -64 -47 -119 0 -23 19 -31 22 -31 11z"/>
<path d="M2110 255 c7 -8 19 -15 26 -15 8 0 14 7 14 15 0 10 -10 15 -26 15
-22 0 -25 -2 -14 -15z"/>
<path d="M2890 260 c-10 -6 -11 -10 -2 -10 17 0 15 -27 -3 -34 -8 -3 -15 -16
-14 -28 0 -23 0 -23 9 -2 12 30 30 40 30 17 0 -13 5 -9 15 11 9 16 13 31 10
34 -2 3 -8 -4 -12 -14 -6 -17 -8 -15 -13 8 -4 22 -8 25 -20 18z"/>
<path d="M20 250 c0 -13 61 -41 72 -34 15 10 8 24 -13 24 -11 0 -29 5 -40 10
-13 8 -19 7 -19 0z"/>
<path d="M201 242 c-9 -18 -8 -23 8 -31 24 -14 35 9 17 35 -13 17 -14 16 -25
-4z"/>
<path d="M523 248 c-51 -6 -93 -14 -93 -20 0 -5 4 -7 9 -4 8 6 21 -63 21 -115
0 -16 5 -29 11 -29 6 0 8 8 5 18 -3 9 -8 43 -12 75 l-6 57 46 2 c25 1 54 2 64
2 15 1 17 -9 17 -84 0 -47 3 -86 8 -87 22 -8 47 -1 47 12 0 18 -26 20 -33 3
-2 -7 -6 26 -8 75 -4 78 -2 87 14 87 9 0 17 5 17 10 0 6 -3 9 -7 9 -5 -1 -50
-6 -100 -11z"/>
<path d="M119 233 c-13 -15 -11 -16 11 -10 14 4 31 7 38 7 6 0 12 5 12 10 0
16 -46 11 -61 -7z"/>
<path d="M859 244 c-3 -5 -2 -22 1 -39 6 -25 8 -27 15 -12 8 19 -8 68 -16 51z"/>
<path d="M1392 226 c2 -13 -3 -21 -12 -22 -8 0 -30 -2 -47 -2 -23 -2 -33 -7
-33 -18 0 -14 7 -15 38 -10 20 3 47 6 60 6 19 0 22 4 17 20 -9 30 2 42 28 29
19 -10 20 -9 9 2 -7 8 -24 14 -38 14 -19 1 -24 -4 -22 -19z"/>
<path d="M2667 237 c-20 -6 -36 -15 -33 -21 4 -12 5 -12 51 -3 26 5 24 4 -9
-12 -26 -11 -36 -20 -28 -25 12 -7 82 13 82 24 -1 16 -13 50 -19 49 -3 -1 -23
-6 -44 -12z"/>
<path d="M10 202 c0 -28 14 -40 62 -56 13 -4 16 1 16 25 -1 20 -6 29 -17 29
-9 0 -27 7 -39 16 -21 15 -22 14 -22 -14z"/>
<path d="M619 225 c-5 -23 -4 -85 2 -85 12 0 17 40 9 68 -5 15 -9 23 -11 17z"/>
<path d="M1960 215 c0 -11 12 -15 45 -15 31 0 45 4 45 13 0 9 -15 14 -45 15
-34 2 -45 -1 -45 -13z"/>
<path d="M2568 207 c-45 -12 -54 -41 -10 -31 37 9 62 23 62 34 0 11 -1 11 -52
-3z"/>
<path d="M124 202 c-15 -9 -13 -82 2 -82 6 0 14 12 17 28 3 15 9 35 12 45 7
18 -10 23 -31 9z"/>
<path d="M172 185 c-20 -44 -14 -64 8 -27 25 41 36 42 14 1 -11 -22 -12 -30
-3 -27 23 8 35 36 23 55 -16 26 -30 26 -42 -2z"/>
<path d="M1490 201 c0 -5 -8 -8 -17 -7 -12 1 -17 -5 -15 -16 2 -12 -2 -16 -13
-12 -10 4 -15 0 -15 -10 0 -11 9 -16 26 -16 19 0 25 4 21 15 -4 8 -2 17 3 20
5 3 11 -5 13 -17 3 -15 5 -9 6 15 0 20 -1 37 -4 37 -3 0 -5 -4 -5 -9z"/>
<path d="M2351 183 c1 -16 -1 -41 -5 -58 -3 -16 -3 -24 0 -17 3 6 11 9 16 6 6
-4 8 -2 4 4 -3 6 -2 29 3 51 7 33 6 41 -5 41 -9 0 -14 -10 -13 -27z"/>
<path d="M1634 190 c-19 -8 -42 -30 -31 -30 16 0 67 24 67 31 0 11 -8 11 -36
-1z"/>
<path d="M2294 186 c-5 -14 -9 -15 -15 -4 -5 8 -9 -13 -9 -53 0 -37 -2 -82 -5
-100 -4 -29 -3 -30 4 -9 8 22 16 11 11 -15 -1 -6 4 -5 10 1 9 9 9 17 1 32 -13
24 -15 134 -2 114 6 -10 10 -7 15 13 8 31 0 47 -10 21z"/>
<path d="M2480 175 c-7 -14 -17 -25 -22 -25 -4 0 -8 -4 -8 -8 0 -4 18 -9 40
-10 39 -3 52 9 28 24 -6 4 -14 2 -16 -4 -2 -7 -8 -10 -13 -6 -16 9 -10 24 11
24 13 0 18 5 14 15 -9 22 -19 19 -34 -10z"/>
<path d="M2159 163 c0 -16 -3 -40 -5 -55 -3 -16 0 -28 6 -28 5 0 10 8 10 18 0
9 3 34 6 55 5 24 3 37 -5 37 -6 0 -11 -12 -12 -27z"/>
<path d="M2186 152 c-8 -53 -8 -78 3 -66 13 13 23 92 12 98 -5 3 -11 -11 -15
-32z"/>
<path d="M2790 176 c0 -9 -9 -16 -20 -16 -16 0 -20 -7 -20 -35 0 -19 5 -35 10
-35 6 0 10 6 10 14 0 8 6 17 13 19 8 4 8 6 -2 6 -11 1 -8 8 8 25 14 15 19 26
12 31 -6 3 -11 -1 -11 -9z"/>
<path d="M1130 168 c0 -12 68 -9 75 2 4 7 -8 10 -34 8 -23 -2 -41 -6 -41 -10z"/>
<path d="M1550 170 c0 -5 -7 -7 -15 -4 -9 4 -15 0 -15 -8 0 -10 9 -13 30 -10
30 4 43 32 15 32 -8 0 -15 -4 -15 -10z"/>
<path d="M1740 130 c0 -27 5 -50 10 -50 6 0 10 23 10 50 0 28 -4 50 -10 50 -5
0 -10 -22 -10 -50z"/>
<path d="M1878 130 c5 -65 22 -65 22 0 0 33 -4 50 -12 50 -9 0 -12 -15 -10
-50z"/>
<path d="M1911 130 c-2 -39 1 -50 14 -50 11 0 15 12 15 50 0 35 -4 50 -13 50
-9 0 -14 -16 -16 -50z"/>
<path d="M1960 130 c0 -46 2 -50 24 -50 13 0 27 7 30 16 4 12 1 14 -13 9 -11
-3 -22 -1 -26 5 -4 6 5 10 21 10 23 0 26 3 22 24 -4 19 0 26 16 29 12 2 0 5
-26 6 l-48 1 0 -50z"/>
<path d="M2095 170 l40 -7 -37 -2 c-31 -1 -38 -5 -38 -21 0 -25 17 -26 23 -2
4 15 5 15 6 0 0 -9 9 -19 19 -21 16 -4 16 -5 0 -6 -29 -2 -22 -31 7 -31 23 0
25 3 25 50 l0 50 -42 -1 -43 -2 40 -7z"/>
<path d="M2571 171 c-14 -4 -26 -12 -29 -19 -5 -15 1 -15 49 0 64 19 44 37
-20 19z"/>
<path d="M2925 149 c4 -18 1 -28 -8 -32 -18 -7 -31 30 -13 37 28 11 -33 3 -69
-10 -34 -11 -35 -13 -9 -9 16 2 37 5 44 7 9 2 16 -6 18 -20 3 -18 8 -21 27
-16 17 4 24 1 28 -13 4 -16 5 -16 5 2 0 11 -3 29 -7 40 -7 17 -2 22 28 31 l36
12 -43 -2 c-40 -1 -42 -2 -37 -27z"/>
<path d="M1328 163 c-16 -2 -28 -10 -28 -18 0 -10 7 -12 30 -5 16 5 34 11 40
15 5 3 10 1 10 -4 0 -6 7 -11 15 -11 8 0 15 7 15 15 0 15 -21 17 -82 8z"/>
<path d="M1686 162 c-3 -5 -2 -29 3 -53 l8 -44 4 48 c4 46 -3 68 -15 49z"/>
<path d="M867 152 c-3 -4 -3 -19 0 -35 4 -22 11 -27 34 -27 20 0 29 5 29 16 0
10 -7 14 -22 12 -19 -2 -22 1 -20 20 3 21 -11 31 -21 14z"/>
<path d="M955 150 c-4 -6 8 -10 29 -10 20 0 36 5 36 10 0 6 -13 10 -29 10 -17
0 -33 -4 -36 -10z"/>
<path d="M222 138 c3 -7 15 -15 27 -16 16 -3 22 1 19 10 -3 7 -15 15 -27 16
-16 3 -22 -1 -19 -10z"/>
<path d="M778 143 c-17 -3 -28 -11 -28 -20 0 -10 6 -13 16 -9 9 3 31 6 50 6
24 0 34 5 34 15 0 15 -15 17 -72 8z"/>
<path d="M1150 140 c-28 -5 -31 -8 -17 -14 20 -10 67 0 67 14 0 6 -3 9 -7 9
-5 -1 -24 -5 -43 -9z"/>
<path d="M696 130 c-22 -3 -42 -11 -44 -19 -4 -11 4 -13 37 -8 45 6 55 11 50
24 -2 4 -22 6 -43 3z"/>
<path d="M1562 93 c2 -25 8 -48 15 -50 8 -3 10 8 8 34 -2 21 -3 44 -4 51 -1 6
-6 12 -12 12 -6 0 -9 -18 -7 -47z"/>
<path d="M963 114 c-16 -12 -15 -13 12 -14 26 0 70 17 55 21 -24 7 -53 4 -67
-7z"/>
<path d="M1333 122 c-32 -3 -33 -4 -33 -53 0 -42 3 -49 19 -49 32 0 55 12 40
21 -10 6 -10 10 0 23 7 8 11 25 9 38 -3 19 -8 23 -35 20z"/>
<path d="M1381 92 l1 -37 8 30 c7 27 10 26 14 -4 3 -25 16 -20 16 6 0 22 -6
32 -20 36 -17 4 -20 0 -19 -31z"/>
<path d="M1520 111 c0 -34 12 -81 21 -81 5 0 9 23 9 50 0 38 -4 50 -15 50 -8
0 -15 -8 -15 -19z"/>
<path d="M7 113 c-15 -15 -5 -40 22 -56 15 -9 31 -14 35 -10 14 14 4 31 -24
43 -16 7 -27 16 -24 21 6 11 0 12 -9 2z"/>
<path d="M153 78 c2 -53 12 -63 20 -20 3 15 9 35 12 45 4 10 3 17 -4 17 -6 0
-11 -8 -12 -17 0 -15 -2 -15 -9 2 -6 14 -8 6 -7 -27z"/>
<path d="M1224 106 c-8 -21 4 -86 16 -86 13 0 13 87 0 95 -6 3 -13 -1 -16 -9z"/>
<path d="M1260 70 c0 -38 4 -50 15 -50 16 0 19 19 9 69 -10 48 -24 37 -24 -19z"/>
<path d="M1430 109 c0 -6 6 -9 14 -6 10 4 16 -6 20 -34 9 -54 28 -51 22 4 -4
29 -3 36 4 22 5 -11 9 -31 10 -45 1 -14 4 -19 7 -12 3 7 2 29 -1 48 -6 31 -10
34 -41 34 -19 0 -35 -5 -35 -11z"/>
<path d="M2490 95 c-2 -16 -2 -37 -2 -45 1 -8 3 -23 4 -32 2 -12 10 -16 30
-15 15 1 28 6 28 10 0 5 -10 7 -22 5 -21 -3 -24 2 -29 52 -4 38 -7 46 -9 25z"/>
<path d="M2573 113 c-17 -3 -23 -11 -23 -31 1 -25 2 -25 14 -9 7 9 18 17 24
17 5 0 12 7 16 15 3 8 2 14 -2 14 -4 -1 -17 -4 -29 -6z"/>
<path d="M121 89 c-5 -13 -11 -33 -13 -44 -5 -19 -6 -18 -15 4 l-10 25 -6 -23
c-4 -17 0 -24 20 -32 40 -15 48 -7 44 42 -3 53 -8 59 -20 28z"/>
<path d="M220 100 c0 -6 11 -15 25 -20 23 -9 25 -14 19 -46 -5 -29 -4 -36 7
-32 9 3 13 16 11 34 -5 62 -12 74 -37 74 -14 0 -25 -5 -25 -10z"/>
<path d="M772 103 c-37 -7 -14 -23 34 -23 32 0 44 4 44 15 0 15 -27 18 -78 8z"/>
<path d="M697 90 c-47 -6 -45 -26 3 -22 39 4 44 7 39 19 -2 4 -21 6 -42 3z"/>
<path d="M1051 48 c-1 -27 4 -48 9 -48 12 0 12 34 0 70 -7 20 -8 16 -9 -22z"/>
<path d="M2333 43 c-8 -32 -7 -43 2 -43 6 0 16 20 22 43 7 33 6 44 -2 44 -7 0
-17 -20 -22 -44z"/>
<path d="M2725 81 c-3 -6 -20 -11 -38 -11 -22 0 -28 -3 -20 -11 16 -16 79 -7
75 10 -2 11 0 12 10 3 9 -7 19 -8 28 -2 13 8 12 10 -2 10 -9 0 -23 3 -31 6 -8
3 -18 1 -22 -5z"/>
<path d="M207 73 c-13 -12 -6 -28 20 -47 14 -11 23 -14 19 -8 -4 7 -13 23 -20
37 -7 14 -16 22 -19 18z"/>
<path d="M910 40 c0 -22 5 -40 10 -40 6 0 10 18 10 40 0 22 -4 40 -10 40 -5 0
-10 -18 -10 -40z"/>
<path d="M806 60 c-22 -3 -41 -11 -44 -17 -2 -7 1 -13 7 -13 6 0 11 6 12 13 0
6 6 1 12 -13 8 -17 21 -26 39 -27 25 -2 27 0 21 30 -3 18 -6 32 -7 32 -1 1
-19 -2 -40 -5z"/>
<path d="M872 38 c4 -46 28 -49 28 -4 0 26 -4 36 -16 36 -11 0 -14 -8 -12 -32z"/>
<path d="M1740 35 c0 -19 5 -35 10 -35 6 0 10 16 10 35 0 19 -4 35 -10 35 -5
0 -10 -16 -10 -35z"/>
<path d="M1880 35 c0 -19 5 -35 10 -35 6 0 10 16 10 35 0 19 -4 35 -10 35 -5
0 -10 -16 -10 -35z"/>
<path d="M1910 35 c0 -23 5 -35 14 -35 9 0 14 12 14 35 0 23 -5 35 -14 35 -9
0 -14 -12 -14 -35z"/>
<path d="M1958 36 c-4 -32 -2 -34 24 -34 32 1 40 28 8 28 -12 0 -20 7 -20 18
0 14 2 15 10 2 9 -13 10 -13 10 0 0 13 1 13 10 0 8 -13 10 -12 10 3 0 11 -8
17 -24 17 -20 0 -25 -6 -28 -34z"/>
<path d="M2090 54 c0 -14 3 -14 15 -4 13 11 14 10 9 -4 -3 -9 -18 -17 -33 -17
-17 -1 -20 -3 -8 -6 9 -2 17 -9 17 -14 0 -5 9 -9 20 -9 13 0 20 7 20 19 0 11
3 26 6 35 5 12 0 16 -20 16 -17 0 -26 -5 -26 -16z"/>
<path d="M2151 33 c0 -31 2 -34 9 -18 8 18 9 18 9 2 1 -10 6 -15 11 -12 6 3 9
21 9 38 -1 18 -3 24 -6 15 -2 -10 -8 -18 -13 -18 -5 0 -7 7 -4 15 4 8 1 15 -5
15 -6 0 -11 -16 -10 -37z"/>
<path d="M2597 49 c-46 -24 -40 -39 16 -39 34 1 38 3 24 11 -9 5 -22 7 -27 4
-6 -3 -10 -2 -10 4 0 6 11 13 25 17 14 3 25 10 25 15 0 12 -8 10 -53 -12z"/>
<path d="M2974 58 c-12 -6 -27 -21 -33 -34 -13 -29 -7 -30 18 -5 10 10 24 20
31 23 7 2 11 9 9 15 -3 7 -11 7 -25 1z"/>
<path d="M660 25 c0 -27 9 -32 28 -13 9 9 12 9 12 0 0 -7 5 -12 11 -12 6 0 9
7 6 15 -4 8 -2 17 4 20 5 4 13 -4 18 -17 10 -23 10 -22 10 5 1 26 -1 27 -44
27 -41 0 -45 -2 -45 -25z"/>
</g>
</svg>
